<svg width="722" height="278" viewBox="0 0 722 278" fill="none" xmlns="http://www.w3.org/2000/svg">
<path d="M29.2819 81.4547L28.9722 102.833L16.9416 105.345L17.2086 82.3967L1.125 58.1551L13.1556 55.6432L23.5523 71.641L32.6086 51.5825L46.2893 48.7246L29.2766 81.4653L29.2819 81.4547Z" fill="#FF5BA6"/>
<path d="M95.8021 74.5614C95.0171 77.3022 94.0666 79.2873 93.6234 80.24C92.203 83.0393 88.9618 88.7977 81.5821 92.2676C80.5408 92.7732 77.9617 93.811 74.7952 94.4709C65.8563 96.3389 59.817 93.8802 56.7786 91.7248C54.2422 89.894 50.4295 85.7535 48.7849 77.9462C48.08 74.5881 48.0747 71.512 48.1227 70.3624C48.3951 63.7951 50.5417 56.6211 54.6961 51.4641C55.716 50.1762 57.8199 47.8771 61.3922 45.7749C62.7912 44.9128 66.0913 43.2204 70.4966 42.2997C76.5467 41.0331 82.7622 41.5972 87.8351 44.8968C94.4191 49.2449 95.8875 55.876 96.4322 58.4785C97.0249 61.2885 97.8526 67.265 95.7967 74.5614H95.8021ZM82.1535 55.743C79.6544 52.4008 75.1423 51.4162 71.0626 52.4806C69.5622 52.8638 68.2753 53.5663 67.8908 53.7845C65.3971 55.2374 62.4068 58.0793 61.184 64.5561C60.5272 67.9143 60.4471 72.6509 61.1359 75.9398C61.5097 77.7227 62.033 79.1862 62.9835 80.6338C65.4024 84.2793 69.3005 85.7535 73.5457 84.7903C77.3957 83.9866 79.7399 81.496 80.5996 80.4529C84.6579 75.5247 85.5443 66.7594 84.3161 60.9372C84.1559 60.1815 83.6379 57.7174 82.1481 55.7377L82.1535 55.743Z" fill="#FF5BA6"/>
<path d="M147.926 60.6674C147.867 64.8291 147.504 68.9111 145.422 72.6365C142.373 78.2831 135.901 81.6359 129.92 82.8866C128.751 83.1314 125.643 83.7115 122.071 83.456C115.663 83.009 112.091 80.034 110.515 78.001C109.736 77.0218 108.518 74.9835 107.856 71.8329C107.306 69.2304 107.301 66.7983 107.301 64.0787L107.685 35.8883L119.855 33.3444L119.465 64.2544C119.428 64.7653 119.401 66.3406 119.748 67.9851C119.935 68.8738 120.234 69.6029 120.736 70.2842C121.74 71.6466 124.303 73.2591 128.222 72.4396C130.631 71.9393 133.813 70.6993 135.031 65.223C135.239 64.1799 135.495 63.339 135.543 61.1836L136.285 29.9117L148.385 27.3838L147.926 60.6674Z" fill="#FF5BA6"/>
<path d="M198.786 67.3513L186.964 69.8207L170.881 40.7788L170.533 73.2534L159.395 75.5791L160.356 24.8767L172.317 22.3754L188.571 51.5238L188.614 18.9694L199.684 16.6543L198.792 67.3407L198.786 67.3513Z" fill="#FF5BA6"/>
<path d="M256.53 55.2857L245.669 57.5528L245.712 53.3219C245.642 53.3378 244.232 55.4932 243.303 56.5417C242.075 57.8722 239.272 60.2458 234.669 61.209C229.43 62.2308 223.412 61.2729 219.044 58.25C216.353 56.382 211.862 52.0978 210.047 43.4603C208.536 36.265 209.55 28.4736 212.754 22.2203C214.837 18.1384 219.675 11.1187 231.155 8.71848C237.825 7.32413 245.808 8.09049 251.03 12.7898C252.894 14.4769 253.593 15.7594 254.837 17.9308L243.923 23.3592C243.346 22.3374 242.743 21.1719 241.926 20.3417C240.644 19.0325 237.558 17.3188 233.088 18.2554C229.03 19.1016 226.189 21.6296 224.395 25.3656C222.248 29.8201 221.944 35.8924 222.937 40.6183C223.124 41.5071 223.53 43.4283 224.705 45.6157C227.076 50.0542 231.337 52.2415 236.426 51.1771C239.864 50.4587 243.191 48.1915 244.579 44.8972C245.252 43.3272 245.461 41.5657 245.61 39.8892L235.502 42.0021L235.619 32.3214L256.931 27.8669L256.525 55.275L256.53 55.2857Z" fill="#FF5BA6"/>
<path d="M51.3199 149.224C50.1879 147.495 49.6753 146.617 48.949 145.786C47.3311 143.828 42.7922 139.97 35.6475 141.46C32.497 142.12 26.9383 144.371 23.3018 151.582C21.3581 155.377 18.3465 163.988 20.6106 174.77C23.6436 188.671 32.3902 192.199 38.798 190.864C41.0034 190.4 45.051 188.793 48.4631 184.147C51.2932 180.385 52.2277 177.021 53.2796 172.646L70.5273 178.006C69.2778 181.981 68.8079 183.391 67.82 185.456C65.2409 190.911 58.1923 202.769 41.6175 206.345C38.2587 207.048 29.0048 208.431 19.5586 204.179C9.15663 199.576 3.42699 190.06 1.09348 178.964C0.0628959 174.035 -0.0385609 169.906 0.00949759 168.038C0.142993 157.734 4.01971 146.43 11.0629 138.73C18.6722 130.582 28.4334 127.995 32.214 127.202C41.6922 125.329 48.8422 127.005 52.2651 128.149C55.3034 129.044 58.1175 130.422 60.6219 132.418C64.0341 135.095 65.935 137.867 68.2418 141.534L51.3253 149.224H51.3199Z" fill="#FF5BA6"/>
<path d="M145.277 140.74C144.481 143.204 143.237 145.647 141.571 147.637C139.531 149.92 137.251 151.602 131.89 154.795L150.136 181.586L129.968 185.801L114.626 161.352L101.704 164.05L101.186 191.81L82.8008 195.652L84.061 118.223L116.73 111.395C118.305 111.065 119.774 110.756 121.376 110.532C123.522 110.304 128.44 109.713 133.978 112.055C137.721 113.678 143.691 117.568 145.827 127.722C146.291 129.92 147.055 135.115 145.271 140.735L145.277 140.74ZM124.879 127.19C122.481 125.179 120.1 124.801 114.845 125.897L102.345 128.51L101.976 149.681L117.526 146.434C117.948 146.349 119.816 145.849 121.429 145.184C124.532 143.768 126.278 141.655 127.26 138.499C128.157 135.471 127.8 133.247 127.538 131.991C127.362 131.155 126.876 128.851 124.884 127.19H124.879Z" fill="#FF5BA6"/>
<path d="M215.609 105.5L180.419 112.855L180.179 127.879L214.108 120.79L213.906 134.931L179.976 142.02L179.645 160.78L220.089 152.328L219.993 166.996L161.164 179.29L162.526 101.839L215.892 90.6895L215.609 105.506V105.5Z" fill="#FF5BA6"/>
<path d="M283.859 153.648L279.828 139.188L252.515 144.893L247.404 161.263L227.973 165.324L257.7 81.9447L278.498 77.5967L301.929 149.869L283.859 153.642V153.648ZM267.786 96.016L257.262 129.912L276.17 125.963L267.786 96.016Z" fill="#FF5BA6"/>
<path d="M361.881 75.1544L342.658 79.1725L341.744 141.557L323.151 145.442L324.064 83.0575L303.688 87.3151L304.344 72.2007L362.543 60.04L361.886 75.1544H361.881Z" fill="#FF5BA6"/>
<path d="M394.686 130.486L376.199 134.35L377.246 56.9634L395.732 53.0996L394.686 130.486Z" fill="#FF5BA6"/>
<path d="M453.093 118.284L431.45 122.807L406.973 50.7585L425.358 46.916L441.66 99.9069L457.295 40.2423L476.727 36.1816L453.093 118.284Z" fill="#FF5BA6"/>
<path d="M541.359 37.4263L506.169 44.7812L505.929 59.8051L539.859 52.7163L539.656 66.8567L505.726 73.9456L505.395 92.7055L545.839 84.2542L545.743 98.9216L486.914 111.215L488.276 33.7648L541.642 22.6152L541.359 37.4316V37.4263Z" fill="#FF5BA6"/>
<path d="M604.969 32.7676C604.286 31.5967 603.325 30.1598 602.241 29.1859C598.14 25.3434 591.043 24.9655 585.895 26.0406C584.95 26.2375 583.06 26.6313 581.009 27.8288C577.325 30.1279 576.492 33.4701 576.844 35.1465C576.93 35.5669 577.256 36.5887 578.131 37.6105C580.385 39.9788 585.228 40.064 592.122 41.0272C596.062 41.5169 600.153 42.1928 604.077 43.1188C608.109 44.0235 618.554 46.759 621.149 59.1166C622.58 65.9234 620.871 72.4002 616.567 77.9989C609.081 87.7594 597.504 90.0692 593.932 90.8196C578.382 94.066 567.697 90.1809 562.315 86.4981C560.408 85.2581 559.175 84.0926 556.094 80.9101L570.239 67.3497C570.431 67.7488 571.606 69.686 572.861 70.9527C575.643 73.7573 581.869 77.8127 591.433 75.8169C595.635 74.9388 597.937 73.3635 599.229 72.2193C602.379 69.4838 602.604 66.3758 602.251 64.6994C601.637 62.3151 599.832 60.5056 594.898 59.4572C588.357 58.0895 581.538 57.9884 574.954 56.4077C571.601 55.5775 561.177 52.9485 558.774 41.5382C558.288 39.2337 557.845 34.5185 560.067 28.9145C562.827 22.2194 568.968 14.923 585.041 11.5648C587.775 10.9954 600.398 8.46745 610.368 14.1407C613.374 15.9182 615.964 18.3291 618.554 20.7346L604.964 32.7569L604.969 32.7676Z" fill="#FF5BA6"/>
<path d="M210.253 264.146C205.143 267.276 200.107 269.197 188.119 271.698L161.121 277.339L162.472 200.496L191.553 194.418C193.534 194.003 195.478 193.923 197.395 193.737C205.431 193.141 210.226 194.743 213.398 196.355C218.498 198.867 224.601 204.099 227.378 217.292C231.201 235.472 225.867 254.588 210.248 264.141L210.253 264.146ZM203.183 211.4C200.849 209.612 198.564 209.112 197.56 208.995C195.424 208.681 193.464 208.659 189.187 209.554L180.013 211.469L179.303 258.792L187.436 257.095C193.587 255.812 199.547 254.13 203.567 248.952C206.622 244.844 211.582 234.806 208.614 221.219C207.391 215.402 205.362 213.008 203.178 211.406L203.183 211.4Z" fill="#FF5BA6"/>
<path d="M297.283 186.968L262.366 194.264L262.131 209.171L295.799 202.135L295.596 216.169L261.928 223.205L261.603 241.816L301.731 233.429L301.635 247.979L243.266 260.177L244.622 183.333L297.572 172.269L297.289 186.968H297.283Z" fill="#FF5BA6"/>
<path d="M376.365 232.363L358.439 236.11L334.052 192.081L333.529 241.315L316.645 244.843L318.102 167.978L336.242 164.189L360.88 208.383L360.944 159.027L377.727 155.52L376.371 232.363H376.365Z" fill="#FF5BA6"/>
<path d="M473.508 212.066L456.416 215.637L457.617 156.174L442.03 218.643L426.603 221.869L412.41 164.759L411.903 224.945L394.703 228.537L395.744 151.757L422.951 146.073L434.319 193.907L447.028 141.044L474.651 135.27L473.508 212.071V212.066Z" fill="#FF5BA6"/>
<path d="M540.114 198.15L536.115 183.802L509.015 189.464L503.942 205.707L484.66 209.736L514.157 127.011L534.796 122.7L558.04 194.403L540.109 198.15H540.114ZM524.164 140.971L513.72 174.6L532.484 170.678L524.164 140.965V140.971Z" fill="#FF5BA6"/>
<path d="M631.592 137.499C630.801 139.942 629.568 142.369 627.918 144.338C625.894 146.605 623.63 148.271 618.312 151.443L636.419 178.026L616.405 182.209L601.181 157.951L588.36 160.628L587.842 188.175L569.602 191.985L570.851 115.163L603.269 108.388C604.834 108.063 606.292 107.754 607.878 107.531C610.008 107.302 614.889 106.717 620.383 109.037C624.095 110.65 630.022 114.508 632.142 124.583C632.601 126.765 633.359 131.922 631.592 137.494V137.499ZM611.354 124.05C608.978 122.055 606.612 121.682 601.4 122.768L588.996 125.36L588.627 146.365L604.054 143.14C604.471 143.055 606.324 142.56 607.926 141.9C611.007 140.501 612.737 138.398 613.714 135.269C614.606 132.262 614.248 130.059 613.986 128.814C613.81 127.983 613.329 125.7 611.354 124.05Z" fill="#FF5BA6"/>
<path d="M686.985 121.475L717.512 161.076L698.23 165.105L676.38 135.727L664.995 151.443L664.771 172.098L647.262 175.759L648.404 98.9579L665.812 95.323L665.374 126.861L691.139 90.0276L713.027 85.4561L686.979 121.48L686.985 121.475Z" fill="#FF5BA6"/>
<path d="M33.2038 73.3609L32.8941 94.7393L20.8635 97.2513L21.1304 74.3029L5.04688 50.0614L17.0775 47.5494L27.4742 63.5472L36.5305 43.4888L50.2112 40.6309L33.1985 73.3716L33.2038 73.3609Z" fill="white"/>
<path d="M99.724 66.4677C98.939 69.2085 97.9885 71.1936 97.5453 72.1462C96.1249 74.9456 92.8836 80.7039 85.504 84.1739C84.4627 84.6795 81.8836 85.7172 78.7171 86.3772C69.7782 88.2452 63.7388 85.7864 60.7005 83.631C58.1641 81.8003 54.3514 77.6598 52.7067 69.8525C52.0019 66.4943 51.9965 63.4182 52.0446 62.2687C52.3169 55.7014 54.4635 48.5273 58.6179 43.3704C59.6378 42.0824 61.7417 39.7834 65.3141 37.6812C66.7131 36.819 70.0131 35.1266 74.4185 34.2059C80.4685 32.9393 86.6841 33.5034 91.7569 36.8031C98.3409 41.1511 99.8094 47.7823 100.354 50.3847C100.947 53.1947 101.774 59.1713 99.7186 66.4677H99.724ZM86.0754 47.6492C83.5763 44.307 79.0642 43.3225 74.9845 44.3869C73.484 44.77 72.1971 45.4725 71.8127 45.6907C69.319 47.1436 66.3287 49.9856 65.1058 56.4624C64.449 59.8206 64.3689 64.5571 65.0578 67.8461C65.4316 69.6289 65.9549 71.0925 66.9054 72.54C69.3243 76.1856 73.2224 77.6598 77.4675 76.6965C81.3176 75.8929 83.6617 73.4022 84.5215 72.3591C88.5797 67.431 89.4661 58.6657 88.238 52.8435C88.0778 52.0877 87.5598 49.6237 86.07 47.6439L86.0754 47.6492Z" fill="white"/>
<path d="M151.848 52.5736C151.789 56.7354 151.426 60.8173 149.344 64.5427C146.295 70.1893 139.823 73.5422 133.842 74.7928C132.673 75.0376 129.565 75.6177 125.993 75.3623C119.585 74.9152 116.012 71.9403 114.437 69.9073C113.658 68.928 112.44 66.8897 111.778 63.7391C111.228 61.1367 111.223 58.7045 111.223 55.985L111.607 27.7945L123.777 25.2506L123.387 56.1606C123.349 56.6715 123.323 58.2468 123.67 59.8913C123.857 60.7801 124.156 61.5092 124.658 62.1904C125.662 63.5528 128.225 65.1654 132.144 64.3458C134.552 63.8455 137.735 62.6055 138.952 57.1292C139.161 56.0861 139.417 55.2452 139.465 53.0898L140.207 21.818L152.307 19.29L151.848 52.5736Z" fill="white"/>
<path d="M202.708 59.2576L190.886 61.727L174.802 32.685L174.455 65.1597L163.316 67.4854L164.278 16.783L176.239 14.2817L192.493 43.4301L192.536 10.8756L203.605 8.56055L202.714 59.2469L202.708 59.2576Z" fill="white"/>
<path d="M260.452 47.1919L249.591 49.4591L249.633 45.2281C249.564 45.2441 248.154 47.3995 247.225 48.4479C245.997 49.7784 243.194 52.152 238.591 53.1153C233.352 54.1371 227.334 53.1791 222.966 50.1563C220.275 48.2883 215.784 44.0041 213.969 35.3665C212.457 28.1712 213.472 20.3799 216.676 14.1266C218.758 10.0446 223.596 3.02494 235.077 0.624735C241.746 -0.76962 249.729 -0.0032569 254.952 4.69604C256.815 6.3831 257.515 7.66569 258.759 9.83706L247.845 15.2655C247.268 14.2436 246.664 13.0781 245.847 12.2479C244.566 10.9387 241.479 9.22503 237.01 10.1617C232.952 11.0079 230.111 13.5358 228.317 17.2718C226.17 21.7263 225.866 27.7987 226.859 32.5246C227.046 33.4134 227.452 35.3346 228.626 37.5219C230.997 41.9604 235.259 44.1478 240.347 43.0834C243.786 42.3649 247.113 40.0977 248.501 36.8035C249.174 35.2335 249.382 33.4719 249.532 31.7955L239.424 33.9083L239.541 24.2276L260.852 19.7732L260.447 47.1813L260.452 47.1919Z" fill="white"/>
<path d="M55.2418 141.131C54.1098 139.401 53.5971 138.523 52.8709 137.693C51.2529 135.734 46.7141 131.876 39.5694 133.366C36.4189 134.026 30.8601 136.277 27.2237 143.488C25.28 147.283 22.2683 155.894 24.5324 166.676C27.5655 180.577 36.3121 184.106 42.7199 182.77C44.9252 182.307 48.9728 180.7 52.385 176.053C55.2151 172.291 56.1496 168.927 57.2015 164.553L74.4492 169.912C73.1996 173.887 72.7297 175.298 71.7419 177.363C69.1627 182.818 62.1142 194.675 45.5393 198.251C42.1806 198.954 32.9267 200.338 23.4805 196.085C13.0785 191.482 7.34886 181.966 5.01536 170.87C3.98477 165.942 3.88331 161.812 3.93137 159.944C4.06487 149.641 7.94158 138.337 14.9848 130.636C22.5941 122.488 32.3553 119.901 36.1359 119.108C45.6141 117.235 52.7641 118.911 56.1869 120.056C59.2253 120.95 62.0394 122.328 64.5438 124.324C67.9559 127.001 69.8569 129.774 72.1637 133.44L55.2471 141.131H55.2418Z" fill="white"/>
<path d="M149.199 132.646C148.403 135.11 147.159 137.553 145.493 139.543C143.453 141.827 141.173 143.508 135.812 146.702L154.058 173.492L133.889 177.707L118.548 153.258L105.626 155.956L105.108 183.716L86.7227 187.558L87.9829 110.129L120.652 103.301C122.227 102.971 123.696 102.662 125.298 102.439C127.444 102.21 132.362 101.619 137.9 103.961C141.643 105.584 147.613 109.474 149.749 119.629C150.213 121.827 150.977 127.021 149.193 132.641L149.199 132.646ZM128.801 119.096C126.403 117.085 124.021 116.707 118.767 117.803L106.266 120.416L105.898 141.587L121.448 138.341C121.869 138.256 123.738 137.755 125.351 137.09C128.453 135.674 130.2 133.562 131.182 130.406C132.079 127.377 131.721 125.153 131.46 123.897C131.284 123.061 130.798 120.757 128.806 119.096H128.801Z" fill="white"/>
<path d="M219.531 97.4067L184.341 104.762L184.101 119.786L218.03 112.697L217.827 126.837L183.898 133.926L183.567 152.686L224.011 144.235L223.915 158.902L165.086 171.196L166.448 93.7452L219.814 82.5957L219.531 97.4121V97.4067Z" fill="white"/>
<path d="M287.781 145.554L283.75 131.094L256.436 136.799L251.326 153.17L231.895 157.23L261.621 73.851L282.42 69.5029L305.851 141.775L287.781 145.549V145.554ZM271.708 87.9223L261.184 121.818L280.092 117.869L271.708 87.9223Z" fill="white"/>
<path d="M365.803 67.0607L346.579 71.0788L345.666 133.463L327.073 137.348L327.986 74.9638L307.609 79.2214L308.266 64.107L366.465 51.9463L365.808 67.0607H365.803Z" fill="white"/>
<path d="M398.608 122.393L380.121 126.256L381.168 48.8696L399.654 45.0059L398.608 122.393Z" fill="white"/>
<path d="M457.015 110.19L435.372 114.714L410.895 42.6648L429.28 38.8223L445.582 91.8131L461.217 32.1486L480.649 28.0879L457.015 110.19Z" fill="white"/>
<path d="M545.281 29.3325L510.091 36.6875L509.851 51.7114L543.78 44.6225L543.577 58.763L509.648 65.8518L509.317 84.6118L549.761 76.1605L549.665 90.8278L490.836 103.122L492.198 25.671L545.564 14.5215L545.281 29.3378V29.3325Z" fill="white"/>
<path d="M608.891 24.6738C608.208 23.503 607.246 22.066 606.162 21.0921C602.061 17.2497 594.965 16.8718 589.817 17.9468C588.872 18.1438 586.982 18.5376 584.931 19.735C581.247 22.0341 580.414 25.3763 580.766 27.0527C580.852 27.4732 581.177 28.495 582.053 29.5168C584.307 31.8851 589.15 31.9702 596.043 32.9335C599.984 33.4231 604.075 34.099 607.999 35.025C612.031 35.9298 622.476 38.6653 625.071 51.0229C626.502 57.8297 624.793 64.3065 620.489 69.9052C613.003 79.6657 601.426 81.9754 597.854 82.7258C582.304 85.9722 571.619 82.0872 566.237 78.4044C564.33 77.1644 563.097 75.9989 560.016 72.8163L574.161 59.2559C574.353 59.6551 575.528 61.5923 576.783 62.8589C579.565 65.6636 585.791 69.7189 595.355 67.7232C599.557 66.8451 601.858 65.2698 603.151 64.1255C606.301 61.3901 606.526 58.282 606.173 56.6056C605.559 54.2214 603.754 52.4119 598.82 51.3635C592.279 49.9957 585.46 49.8946 578.876 48.314C575.522 47.4838 565.099 44.8547 562.696 33.4444C562.21 31.14 561.767 26.4247 563.988 20.8207C566.749 14.1257 572.89 6.82925 588.963 3.47109C591.697 2.90164 604.32 0.373703 614.29 6.04692C617.296 7.82446 619.886 10.2353 622.476 12.6408L608.886 24.6632L608.891 24.6738Z" fill="white"/>
<path d="M214.175 256.053C209.065 259.182 204.029 261.103 192.041 263.604L165.043 269.246L166.394 192.402L195.475 186.324C197.456 185.909 199.399 185.829 201.316 185.643C209.353 185.047 214.148 186.649 217.32 188.261C222.419 190.773 228.523 196.005 231.3 209.198C235.123 227.378 229.788 246.494 214.169 256.047L214.175 256.053ZM207.105 203.307C204.771 201.518 202.486 201.018 201.482 200.901C199.346 200.587 197.386 200.566 193.109 201.46L183.935 203.376L183.225 250.699L191.358 249.001C197.509 247.718 203.468 246.037 207.489 240.858C210.544 236.75 215.504 226.713 212.535 213.126C211.313 207.309 209.283 204.914 207.099 203.312L207.105 203.307Z" fill="white"/>
<path d="M301.205 178.874L266.288 186.17L266.053 201.077L299.721 194.042L299.518 208.076L265.85 215.111L265.524 233.722L305.653 225.335L305.557 239.885L247.188 252.083L248.544 175.239L301.494 164.175L301.211 178.874H301.205Z" fill="white"/>
<path d="M380.287 224.27L362.361 228.016L337.974 183.988L337.451 233.221L320.566 236.75L322.024 159.885L340.164 156.095L364.802 200.289L364.866 150.933L381.649 147.426L380.292 224.27H380.287Z" fill="white"/>
<path d="M477.43 203.972L460.337 207.543L461.539 148.08L445.952 210.55L430.525 213.775L416.332 156.665L415.825 216.851L398.625 220.443L399.666 143.663L426.873 137.979L438.241 185.813L450.95 132.95L478.573 127.176L477.43 203.977V203.972Z" fill="white"/>
<path d="M544.036 190.056L540.037 175.708L512.937 181.371L507.864 197.613L488.582 201.642L518.079 118.917L538.718 114.606L561.962 186.309L544.031 190.056H544.036ZM528.086 132.877L517.641 166.506L536.406 162.584L528.086 132.871V132.877Z" fill="white"/>
<path d="M635.514 129.405C634.723 131.848 633.49 134.275 631.84 136.244C629.816 138.511 627.552 140.177 622.233 143.349L640.341 169.932L620.327 174.115L605.103 149.858L592.282 152.534L591.764 180.081L573.523 183.891L574.773 107.069L607.191 100.294C608.756 99.9694 610.213 99.6607 611.799 99.4372C613.93 99.2084 618.811 98.623 624.305 100.943C628.016 102.556 633.944 106.414 636.064 116.489C636.523 118.671 637.281 123.828 635.514 129.4V129.405ZM615.276 115.957C612.899 113.961 610.534 113.588 605.322 114.674L592.918 117.266L592.549 138.272L607.976 135.046C608.393 134.961 610.245 134.466 611.847 133.806C614.929 132.407 616.659 130.305 617.636 127.175C618.528 124.168 618.17 121.965 617.908 120.72C617.732 119.89 617.251 117.606 615.276 115.957Z" fill="white"/>
<path d="M690.907 113.381L721.434 152.982L702.152 157.011L680.302 127.634L668.917 143.349L668.693 164.004L651.184 167.665L652.326 90.8641L669.734 87.2292L669.296 118.767L695.061 81.9339L716.949 77.3623L690.901 113.387L690.907 113.381Z" fill="white"/>
</svg>
