<svg width="1153" height="188" viewBox="0 0 1153 188" fill="none" xmlns="http://www.w3.org/2000/svg">
<path d="M490.501 59.0468V65.3972C496.009 60.0142 503.982 57.3284 514.417 57.3284C522.675 57.3284 530.282 59.2972 537.216 63.2576C544.162 67.2067 549.659 72.8742 553.731 80.2602C557.802 87.6462 559.844 96.2044 559.844 105.923C559.844 115.642 557.814 124.235 553.731 131.678C549.659 139.12 544.15 144.811 537.216 148.76C530.282 152.709 522.675 154.689 514.417 154.689C502.83 154.689 494.23 151.537 488.608 145.243V152.971H451.609V59.0582H490.501V59.0468ZM505.134 124.462C509.604 124.462 513.277 122.835 516.151 119.569C519.025 116.302 520.451 111.762 520.451 105.923C520.451 100.085 519.014 95.5671 516.151 92.3577C513.288 89.1598 509.616 87.5551 505.134 87.5551C500.651 87.5551 496.99 89.1598 494.116 92.3577C491.254 95.5671 489.817 100.085 489.817 105.923C489.817 111.762 491.254 116.314 494.116 119.569C496.99 122.835 500.651 124.462 505.134 124.462Z" fill="#FF93C8"/>
<path d="M376.772 57.3285C382.394 57.3285 387.607 58.2503 392.431 60.0712C397.244 61.9035 401.498 64.6462 405.159 68.3108V59.0356H442.157V152.948H403.266V108.826C403.266 102.304 401.92 97.5247 399.217 94.486C396.525 91.4588 393.001 89.9338 388.633 89.9338C380.946 89.9338 377.102 95.3168 377.102 106.071V152.948H338.211V99.3797C338.211 85.3019 341.735 74.7749 348.795 67.7873C355.855 60.811 365.173 57.3171 376.76 57.3171L376.772 57.3285Z" fill="#FF93C8"/>
<path d="M292.282 154.679C281.847 154.679 272.951 153.245 265.617 150.388C258.272 147.532 252.775 143.696 249.102 138.882C245.43 134.08 243.594 128.754 243.594 122.915C243.594 115.245 245.635 109.35 249.707 105.23C253.779 101.11 258.477 98.3106 263.815 96.8197C269.153 95.3289 275.665 94.1339 283.341 93.2121C288.279 92.6431 291.883 92.0399 294.175 91.414C296.468 90.788 297.62 89.7297 297.62 88.2388C297.62 85.2685 293.377 83.7776 284.892 83.7776C275.026 83.7776 265.959 86.0651 257.702 90.6401L247.038 65.0566C251.851 62.5415 257.679 60.6182 264.499 59.3094C271.32 58.0007 278.3 57.3406 285.405 57.3406C295.612 57.3406 304.36 58.7745 311.648 61.6311C318.936 64.499 324.41 68.3228 328.083 73.1368C331.755 77.9394 333.592 83.3793 333.592 89.4451C333.592 97.1156 331.561 103.011 327.478 107.131C323.407 111.25 318.674 114.027 313.279 115.461C307.884 116.895 301.349 118.067 293.662 118.978C288.621 119.547 284.972 120.127 282.736 120.696C280.501 121.265 279.383 122.301 279.383 123.792C279.383 125.283 280.273 126.398 282.052 127.138C283.831 127.889 286.956 128.253 291.427 128.253C297.05 128.253 302.843 127.513 308.808 126.022C314.773 124.531 319.94 122.472 324.296 119.843L334.96 145.426C330.147 148.169 323.84 150.411 316.028 152.118C308.227 153.836 300.311 154.69 292.282 154.69V154.679Z" fill="#FF93C8"/>
<path d="M220.188 51.4905C213.072 51.4905 207.403 49.5786 203.149 45.7434C198.907 41.9081 196.785 37.0145 196.785 31.0624C196.785 25.4518 198.907 20.8768 203.149 17.3261C207.392 13.7754 213.072 12 220.188 12C227.305 12 232.837 13.8664 237.136 17.5765C241.436 21.2979 243.592 26.0209 243.592 31.7453C243.592 37.4697 241.436 42.1926 237.136 45.9141C232.837 49.6355 227.191 51.4905 220.188 51.4905ZM239.634 152.96H200.743V59.0472H239.634V152.96Z" fill="#FF93C8"/>
<path d="M123.143 59.0468V69.6877C128.88 61.4481 138.175 57.3284 151.017 57.3284C159.047 57.3284 166.528 59.1948 173.474 62.9048C180.42 66.6263 185.951 71.9182 190.08 78.7921C194.209 85.666 196.273 93.5641 196.273 102.486C196.273 111.409 194.209 119.341 190.08 126.272C185.951 133.203 180.42 138.517 173.474 142.239C166.54 145.96 159.047 147.815 151.017 147.815C139.544 147.815 130.887 144.492 125.037 137.857V139.576C125.037 145.983 126.816 150.854 130.374 154.166C133.933 157.489 139.612 159.15 147.413 159.15C152.58 159.15 157.963 158.297 163.586 156.578C169.209 154.86 173.851 152.629 177.523 149.886L190.605 176.324C184.868 180.102 177.934 182.993 169.79 184.995C161.647 186.998 152.877 188 143.467 188C125.116 188 110.974 183.505 101.052 174.525C91.1292 165.535 86.168 152.117 86.168 134.261V59.0582H123.166L123.143 59.0468ZM140.696 117.588C145.281 117.588 149.124 116.189 152.226 113.378C155.329 110.578 156.868 106.936 156.868 102.475C156.868 98.0139 155.351 94.4062 152.306 91.6635C149.272 88.9208 145.395 87.5438 140.696 87.5438C135.997 87.5438 132.29 88.9208 129.256 91.6635C126.223 94.4062 124.694 98.0139 124.694 102.475C124.694 106.936 126.211 110.578 129.256 113.378C132.302 116.189 136.111 117.588 140.696 117.588Z" fill="#FF93C8"/>
<path d="M21.2838 122.745C23.8043 124.463 26.7354 125.317 30.0543 125.317C32.4608 125.317 34.4111 124.52 35.9051 122.915C37.3992 121.311 38.1405 119.08 38.1405 116.224V92.5293H18.8659V64.2031H38.1405V37.9368H77.032V116.576C77.032 129.277 73.4736 138.814 66.3682 145.164C59.2628 151.515 49.1008 154.69 35.9165 154.69C25.823 154.69 17.8508 153.028 12 149.705L21.2952 122.745H21.2838Z" fill="#FF93C8"/>
<path d="M712.902 59.047V152.959H675.904V145.232C670.282 151.525 661.682 154.678 650.094 154.678C641.837 154.678 634.23 152.709 627.296 148.749C620.35 144.8 614.853 139.109 610.781 131.666C606.709 124.223 604.668 115.643 604.668 105.912C604.668 96.1818 606.698 87.6236 610.781 80.249C614.853 72.863 620.361 67.1955 627.296 63.2464C634.23 59.2974 641.837 57.3171 650.094 57.3171C660.53 57.3171 668.502 60.0029 674.011 65.386V59.0356H712.902V59.047ZM670.396 119.569C673.258 116.303 674.695 111.762 674.695 105.924C674.695 100.085 673.258 95.5672 670.396 92.3579C667.522 89.16 663.86 87.5553 659.378 87.5553C654.896 87.5553 651.235 89.16 648.361 92.3579C645.498 95.5672 644.061 100.085 644.061 105.924C644.061 111.762 645.498 116.314 648.361 119.569C651.224 122.835 654.896 124.462 659.378 124.462C663.86 124.462 667.522 122.835 670.396 119.569Z" fill="#FF93C8"/>
<path d="M815.71 67.7993C822.77 74.787 826.294 85.314 826.294 99.3918V152.96H787.403V106.084C787.403 95.3289 783.559 89.9459 775.872 89.9459C771.515 89.9459 767.98 91.4595 765.288 94.4981C762.597 97.5367 761.251 102.305 761.251 108.838V152.96H722.359V59.0477H759.358V68.3228C763.03 64.6583 767.273 61.9156 772.086 60.0833C776.899 58.251 782.122 57.3406 787.745 57.3406C799.332 57.3406 808.65 60.8344 815.71 67.8107V67.7993Z" fill="#FF93C8"/>
<path d="M848.487 152.106C840.686 150.387 834.379 148.157 829.566 145.414L840.23 119.83C844.587 122.459 849.753 124.531 855.718 126.01C861.683 127.501 867.477 128.241 873.1 128.241C877.571 128.241 880.695 127.865 882.475 127.125C884.254 126.386 885.144 125.27 885.144 123.779C885.144 122.289 884.026 121.264 881.79 120.684C879.555 120.115 875.905 119.546 870.864 118.965C863.177 118.055 856.642 116.883 851.247 115.449C845.853 114.015 841.12 111.238 837.048 107.118C832.977 102.999 830.935 97.1034 830.935 89.4329C830.935 83.3671 832.771 77.9272 836.444 73.1246C840.116 68.322 845.591 64.4867 852.878 61.6188C860.166 58.7623 868.903 57.3284 879.122 57.3284C886.227 57.3284 893.207 57.9884 900.027 59.2972C906.847 60.6174 912.675 62.5293 917.488 65.0444L906.825 90.6279C898.567 86.0529 889.5 83.7654 879.635 83.7654C871.149 83.7654 866.907 85.2563 866.907 88.2266C866.907 89.7174 868.047 90.7758 870.351 91.4018C872.643 92.0277 876.259 92.6309 881.186 93.1999C888.873 94.1217 895.385 95.3167 900.711 96.8075C906.049 98.2984 910.748 101.098 914.82 105.218C918.891 109.338 920.933 115.233 920.933 122.903C920.933 128.741 919.097 134.067 915.424 138.87C911.752 143.673 906.243 147.519 898.91 150.376C891.565 153.232 882.68 154.666 872.244 154.666C864.215 154.666 856.3 153.813 848.499 152.094L848.487 152.106Z" fill="#FF93C8"/>
<path d="M927.377 45.9141C923.077 42.1926 920.922 37.4697 920.922 31.7453C920.922 26.0209 923.077 21.2979 927.377 17.5765C931.677 13.855 937.322 12 944.325 12C951.328 12 957.11 13.7754 961.364 17.3261C965.607 20.8768 967.728 25.4518 967.728 31.0624C967.728 37.0145 965.607 41.9081 961.364 45.7434C957.122 49.5786 951.442 51.4905 944.325 51.4905C937.208 51.4905 931.677 49.6355 927.377 45.9141ZM924.879 59.0472H963.771V152.96H924.879V59.0472Z" fill="#FF93C8"/>
<path d="M1078.37 59.047V134.25C1078.37 152.106 1073.41 165.524 1063.48 174.514C1053.56 183.493 1039.42 187.989 1021.07 187.989C1011.66 187.989 1002.89 186.987 994.744 184.984C986.601 182.981 979.655 180.091 973.93 176.312L987 149.875C990.672 152.618 995.314 154.86 1000.94 156.567C1006.56 158.285 1011.95 159.139 1017.11 159.139C1024.91 159.139 1030.59 157.477 1034.15 154.154C1037.71 150.831 1039.49 145.972 1039.49 139.564V137.846C1033.64 144.481 1024.98 147.804 1013.51 147.804C1005.48 147.804 997.995 145.949 991.049 142.227C984.103 138.506 978.572 133.191 974.443 126.261C970.314 119.341 968.25 111.409 968.25 102.475C968.25 93.5415 970.314 85.6547 974.443 78.7809C978.572 71.9184 984.103 66.6151 991.049 62.8936C997.983 59.1722 1005.48 57.3171 1013.51 57.3171C1026.35 57.3171 1035.64 61.4369 1041.38 69.6764V59.0356H1078.38L1078.37 59.047ZM1035.26 113.389C1038.29 110.59 1039.82 106.948 1039.82 102.487C1039.82 98.0254 1038.3 94.4178 1035.26 91.675C1032.21 88.9323 1028.4 87.5553 1023.82 87.5553C1019.23 87.5553 1015.24 88.9323 1012.21 91.675C1009.16 94.4178 1007.64 98.0254 1007.64 102.487C1007.64 106.948 1009.19 110.59 1012.29 113.389C1015.39 116.2 1019.22 117.6 1023.82 117.6C1028.41 117.6 1032.22 116.2 1035.26 113.389Z" fill="#FF93C8"/>
<path d="M1152.52 149.705C1146.67 153.029 1138.7 154.69 1128.61 154.69C1115.41 154.69 1105.26 151.515 1098.16 145.165C1091.04 138.814 1087.49 129.277 1087.49 116.577V37.9255H1126.38V64.1919H1145.66V92.5181H1126.38V116.212C1126.38 119.08 1127.12 121.311 1128.62 122.904C1130.1 124.509 1132.06 125.305 1134.47 125.305C1137.8 125.305 1140.72 124.452 1143.24 122.733L1152.54 149.694L1152.52 149.705Z" fill="#FF93C8"/>
<path d="M567.672 97.0928V96.4669H577.457V97.0928H567.672ZM575.142 113.686C573.796 113.686 572.77 113.299 572.051 112.525C571.344 111.751 570.991 110.738 570.991 109.475V92.7227H571.652V109.316C571.652 110.533 571.949 111.455 572.553 112.092C573.146 112.73 574.024 113.048 575.176 113.048C576.328 113.048 577.275 112.696 578.028 111.99L578.495 112.457C578.096 112.878 577.594 113.185 576.99 113.378C576.385 113.572 575.77 113.674 575.154 113.674L575.142 113.686Z" fill="#FF93C8"/>
<path d="M583.769 91.7319C583.553 91.7319 583.347 91.6408 583.176 91.4701C582.994 91.2994 582.914 91.0946 582.914 90.8784C582.914 90.6394 583.005 90.4345 583.176 90.2638C583.347 90.0931 583.553 90.0134 583.769 90.0134C584.009 90.0134 584.214 90.0931 584.385 90.2638C584.556 90.4345 584.636 90.6394 584.636 90.8784C584.636 91.0946 584.556 91.2994 584.385 91.4701C584.214 91.6522 584.02 91.7319 583.769 91.7319ZM583.427 113.583V96.4662H584.089V113.583H583.427Z" fill="#FF93C8"/>
<path d="M591.562 113.584V89.0129H592.224V113.584H591.562Z" fill="#FF93C8"/>
<path d="M478.501 47.0468V53.3972C484.009 48.0142 491.982 45.3284 502.417 45.3284C510.675 45.3284 518.282 47.2972 525.216 51.2576C532.162 55.2067 537.659 60.8742 541.731 68.2602C545.802 75.6462 547.844 84.2044 547.844 93.9234C547.844 103.642 545.814 112.235 541.731 119.678C537.659 127.12 532.15 132.811 525.216 136.76C518.282 140.709 510.675 142.689 502.417 142.689C490.83 142.689 482.23 139.537 476.608 133.243V140.971H439.609V47.0582H478.501V47.0468ZM493.134 112.462C497.604 112.462 501.277 110.835 504.151 107.569C507.025 104.302 508.451 99.7616 508.451 93.9234C508.451 88.0851 507.014 83.5671 504.151 80.3577C501.288 77.1598 497.616 75.5551 493.134 75.5551C488.651 75.5551 484.99 77.1598 482.116 80.3577C479.254 83.5671 477.817 88.0851 477.817 93.9234C477.817 99.7616 479.254 104.314 482.116 107.569C484.99 110.835 488.651 112.462 493.134 112.462Z" fill="white"/>
<path d="M364.772 45.3285C370.394 45.3285 375.607 46.2503 380.431 48.0712C385.244 49.9035 389.498 52.6462 393.159 56.3108V47.0356H430.157V140.948H391.266V96.8256C391.266 90.3045 389.92 85.5247 387.217 82.486C384.525 79.4588 381.001 77.9338 376.633 77.9338C368.946 77.9338 365.102 83.3168 365.102 94.0715V140.948H326.211V87.3797C326.211 73.3019 329.735 62.7749 336.795 55.7873C343.855 48.811 353.173 45.3171 364.76 45.3171L364.772 45.3285Z" fill="white"/>
<path d="M280.282 142.679C269.847 142.679 260.951 141.245 253.617 138.388C246.272 135.532 240.775 131.696 237.102 126.882C233.43 122.08 231.594 116.754 231.594 110.915C231.594 103.245 233.635 97.3497 237.707 93.23C241.779 89.1102 246.477 86.3106 251.815 84.8197C257.153 83.3289 263.665 82.1339 271.341 81.2121C276.279 80.6431 279.883 80.0399 282.175 79.414C284.468 78.788 285.62 77.7297 285.62 76.2388C285.62 73.2685 281.377 71.7776 272.892 71.7776C263.026 71.7776 253.959 74.0651 245.702 78.6401L235.038 53.0566C239.851 50.5415 245.679 48.6182 252.499 47.3094C259.32 46.0007 266.3 45.3406 273.405 45.3406C283.612 45.3406 292.36 46.7745 299.648 49.6311C306.936 52.499 312.41 56.3228 316.083 61.1368C319.755 65.9394 321.592 71.3793 321.592 77.4451C321.592 85.1156 319.561 91.0108 315.478 95.1305C311.407 99.2503 306.674 102.027 301.279 103.461C295.884 104.895 289.349 106.067 281.662 106.978C276.621 107.547 272.972 108.127 270.736 108.696C268.501 109.265 267.383 110.301 267.383 111.792C267.383 113.283 268.273 114.398 270.052 115.138C271.831 115.889 274.956 116.253 279.427 116.253C285.05 116.253 290.843 115.513 296.808 114.022C302.773 112.531 307.94 110.472 312.296 107.843L322.96 133.426C318.147 136.169 311.84 138.411 304.028 140.118C296.227 141.836 288.311 142.69 280.282 142.69V142.679Z" fill="white"/>
<path d="M208.188 39.4905C201.072 39.4905 195.403 37.5786 191.149 33.7434C186.907 29.9081 184.785 25.0145 184.785 19.0624C184.785 13.4518 186.907 8.87684 191.149 5.3261C195.392 1.77537 201.072 0 208.188 0C215.305 0 220.837 1.86641 225.136 5.57648C229.436 9.29792 231.592 14.0209 231.592 19.7453C231.592 25.4697 229.436 30.1926 225.136 33.9141C220.837 37.6355 215.191 39.4905 208.188 39.4905ZM227.634 140.96H188.743V47.0472H227.634V140.96Z" fill="white"/>
<path d="M111.143 47.0468V57.6877C116.88 49.4481 126.175 45.3284 139.017 45.3284C147.047 45.3284 154.528 47.1948 161.474 50.9048C168.42 54.6263 173.951 59.9182 178.08 66.7921C182.209 73.666 184.273 81.5641 184.273 90.4864C184.273 99.4088 182.209 107.341 178.08 114.272C173.951 121.203 168.42 126.517 161.474 130.239C154.54 133.96 147.047 135.815 139.017 135.815C127.544 135.815 118.887 132.492 113.037 125.857V127.576C113.037 133.983 114.816 138.854 118.374 142.166C121.933 145.489 127.612 147.15 135.413 147.15C140.58 147.15 145.963 146.297 151.586 144.578C157.209 142.86 161.851 140.629 165.523 137.886L178.605 164.324C172.868 168.102 165.934 170.993 157.79 172.995C149.647 174.998 140.877 176 131.467 176C113.116 176 98.9741 171.505 89.0516 162.525C79.1292 153.535 74.168 140.117 74.168 122.261V47.0582H111.166L111.143 47.0468ZM128.696 105.588C133.281 105.588 137.124 104.189 140.226 101.378C143.329 98.578 144.868 94.9362 144.868 90.4751C144.868 86.0139 143.351 82.4062 140.306 79.6635C137.272 76.9208 133.395 75.5438 128.696 75.5438C123.997 75.5438 120.29 76.9208 117.256 79.6635C114.223 82.4062 112.694 86.0139 112.694 90.4751C112.694 94.9362 114.211 98.578 117.256 101.378C120.302 104.189 124.111 105.588 128.696 105.588Z" fill="white"/>
<path d="M9.28376 110.745C11.8043 112.463 14.7354 113.317 18.0543 113.317C20.4608 113.317 22.4111 112.52 23.9051 110.915C25.3992 109.311 26.1405 107.08 26.1405 104.224V80.5293H6.86588V52.2031H26.1405V25.9368H65.032V104.576C65.032 117.277 61.4736 126.814 54.3682 133.164C47.2628 139.515 37.1008 142.69 23.9165 142.69C13.823 142.69 5.85083 141.028 0 137.705L9.29517 110.745H9.28376Z" fill="white"/>
<path d="M700.902 47.047V140.959H663.904V133.232C658.282 139.525 649.682 142.678 638.094 142.678C629.837 142.678 622.23 140.709 615.296 136.749C608.35 132.8 602.853 127.109 598.781 119.666C594.709 112.223 592.668 103.643 592.668 93.9121C592.668 84.1818 594.698 75.6236 598.781 68.249C602.853 60.863 608.361 55.1955 615.296 51.2464C622.23 47.2974 629.837 45.3171 638.094 45.3171C648.53 45.3171 656.502 48.0029 662.011 53.386V47.0356H700.902V47.047ZM658.396 107.569C661.258 104.303 662.695 99.7617 662.695 93.9235C662.695 88.0853 661.258 83.5672 658.396 80.3579C655.522 77.16 651.86 75.5553 647.378 75.5553C642.896 75.5553 639.235 77.16 636.361 80.3579C633.498 83.5672 632.061 88.0853 632.061 93.9235C632.061 99.7617 633.498 104.314 636.361 107.569C639.224 110.835 642.896 112.462 647.378 112.462C651.86 112.462 655.522 110.835 658.396 107.569Z" fill="white"/>
<path d="M803.71 55.7993C810.77 62.787 814.294 73.314 814.294 87.3918V140.96H775.403V94.0835C775.403 83.3289 771.559 77.9459 763.872 77.9459C759.515 77.9459 755.98 79.4595 753.288 82.4981C750.597 85.5367 749.251 90.3052 749.251 96.8376V140.96H710.359V47.0477H747.358V56.3228C751.03 52.6583 755.273 49.9156 760.086 48.0833C764.899 46.251 770.122 45.3406 775.745 45.3406C787.332 45.3406 796.65 48.8344 803.71 55.8107V55.7993Z" fill="white"/>
<path d="M836.487 140.106C828.686 138.387 822.379 136.157 817.566 133.414L828.23 107.83C832.587 110.459 837.753 112.531 843.718 114.01C849.683 115.501 855.477 116.241 861.1 116.241C865.571 116.241 868.695 115.865 870.475 115.125C872.254 114.386 873.144 113.27 873.144 111.779C873.144 110.289 872.026 109.264 869.79 108.684C867.555 108.115 863.905 107.546 858.864 106.965C851.177 106.055 844.642 104.883 839.247 103.449C833.853 102.015 829.12 99.2381 825.048 95.1183C820.977 90.9986 818.935 85.1034 818.935 77.4329C818.935 71.3671 820.771 65.9272 824.444 61.1246C828.116 56.322 833.591 52.4867 840.878 49.6188C848.166 46.7623 856.903 45.3284 867.122 45.3284C874.227 45.3284 881.207 45.9884 888.027 47.2972C894.847 48.6174 900.675 50.5293 905.488 53.0444L894.825 78.6279C886.567 74.0529 877.5 71.7654 867.635 71.7654C859.149 71.7654 854.907 73.2563 854.907 76.2266C854.907 77.7174 856.047 78.7758 858.351 79.4018C860.643 80.0277 864.259 80.6309 869.186 81.1999C876.873 82.1217 883.385 83.3167 888.711 84.8075C894.049 86.2984 898.748 89.098 902.82 93.2178C906.891 97.3375 908.933 103.233 908.933 110.903C908.933 116.741 907.097 122.067 903.424 126.87C899.752 131.673 894.243 135.519 886.91 138.376C879.565 141.232 870.68 142.666 860.244 142.666C852.215 142.666 844.3 141.813 836.499 140.094L836.487 140.106Z" fill="white"/>
<path d="M915.377 33.9141C911.077 30.1926 908.922 25.4697 908.922 19.7453C908.922 14.0209 911.077 9.29792 915.377 5.57648C919.677 1.85503 925.322 0 932.325 0C939.328 0 945.11 1.77537 949.364 5.3261C953.607 8.87684 955.728 13.4518 955.728 19.0624C955.728 25.0145 953.607 29.9081 949.364 33.7434C945.122 37.5786 939.442 39.4905 932.325 39.4905C925.208 39.4905 919.677 37.6355 915.377 33.9141ZM912.879 47.0472H951.771V140.96H912.879V47.0472Z" fill="white"/>
<path d="M1066.37 47.047V122.25C1066.37 140.106 1061.41 153.524 1051.48 162.514C1041.56 171.493 1027.42 175.989 1009.07 175.989C999.658 175.989 990.887 174.987 982.744 172.984C974.601 170.981 967.655 168.091 961.93 164.312L975 137.875C978.672 140.618 983.314 142.86 988.937 144.567C994.56 146.285 999.954 147.139 1005.11 147.139C1012.91 147.139 1018.59 145.477 1022.15 142.154C1025.71 138.831 1027.49 133.972 1027.49 127.564V125.846C1021.64 132.481 1012.98 135.804 1001.51 135.804C993.476 135.804 985.995 133.949 979.049 130.227C972.103 126.506 966.572 121.191 962.443 114.261C958.314 107.341 956.25 99.4089 956.25 90.4752C956.25 81.5415 958.314 73.6547 962.443 66.7809C966.572 59.9184 972.103 54.6151 979.049 50.8936C985.983 47.1722 993.476 45.3171 1001.51 45.3171C1014.35 45.3171 1023.64 49.4369 1029.38 57.6764V47.0356H1066.38L1066.37 47.047ZM1023.26 101.389C1026.29 98.5895 1027.82 94.9478 1027.82 90.4866C1027.82 86.0254 1026.3 82.4178 1023.26 79.675C1020.21 76.9323 1016.4 75.5553 1011.82 75.5553C1007.23 75.5553 1003.24 76.9323 1000.21 79.675C997.16 82.4178 995.643 86.0254 995.643 90.4866C995.643 94.9478 997.194 98.5895 1000.29 101.389C1003.39 104.2 1007.22 105.6 1011.82 105.6C1016.41 105.6 1020.22 104.2 1023.26 101.389Z" fill="white"/>
<path d="M1140.52 137.705C1134.67 141.029 1126.7 142.69 1116.61 142.69C1103.41 142.69 1093.26 139.515 1086.16 133.165C1079.04 126.814 1075.49 117.277 1075.49 104.577V25.9255H1114.38V52.1919H1133.66V80.5181H1114.38V104.212C1114.38 107.08 1115.12 109.311 1116.62 110.904C1118.1 112.509 1120.06 113.305 1122.47 113.305C1125.8 113.305 1128.72 112.452 1131.24 110.733L1140.54 137.694L1140.52 137.705Z" fill="white"/>
<path d="M555.672 85.0928V84.4669H565.457V85.0928H555.672ZM563.142 101.686C561.796 101.686 560.77 101.299 560.051 100.525C559.344 99.7509 558.991 98.7381 558.991 97.4748V80.7227H559.652V97.3155C559.652 98.5332 559.949 99.4551 560.553 100.092C561.146 100.73 562.024 101.048 563.176 101.048C564.328 101.048 565.275 100.696 566.028 99.9899L566.495 100.457C566.096 100.878 565.594 101.185 564.99 101.378C564.385 101.572 563.77 101.674 563.154 101.674L563.142 101.686Z" fill="white"/>
<path d="M571.769 79.7319C571.553 79.7319 571.347 79.6408 571.176 79.4701C570.994 79.2994 570.914 79.0946 570.914 78.8784C570.914 78.6394 571.005 78.4345 571.176 78.2638C571.347 78.0931 571.553 78.0134 571.769 78.0134C572.009 78.0134 572.214 78.0931 572.385 78.2638C572.556 78.4345 572.636 78.6394 572.636 78.8784C572.636 79.0946 572.556 79.2994 572.385 79.4701C572.214 79.6522 572.02 79.7319 571.769 79.7319ZM571.427 101.583V84.4662H572.089V101.583H571.427Z" fill="white"/>
<path d="M579.562 101.584V77.0129H580.224V101.584H579.562Z" fill="white"/>
</svg>
