<svg width="1153" height="188" viewBox="0 0 1153 188" fill="none" xmlns="http://www.w3.org/2000/svg">
<path d="M490.501 59.0471V65.3974C496.009 60.0144 503.982 57.3286 514.417 57.3286C522.675 57.3286 530.282 59.2975 537.216 63.2579C544.162 67.2069 549.659 72.8745 553.731 80.2604C557.802 87.6464 559.844 96.2046 559.844 105.924C559.844 115.643 557.814 124.235 553.731 131.678C549.659 139.121 544.15 144.811 537.216 148.76C530.282 152.709 522.675 154.689 514.417 154.689C502.83 154.689 494.23 151.537 488.608 145.243V152.971H451.609V59.0585H490.501V59.0471ZM505.134 124.463C509.604 124.463 513.277 122.835 516.151 119.569C519.025 116.303 520.451 111.762 520.451 105.924C520.451 100.085 519.014 95.5673 516.151 92.358C513.288 89.16 509.616 87.5554 505.134 87.5554C500.651 87.5554 496.99 89.16 494.116 92.358C491.254 95.5673 489.817 100.085 489.817 105.924C489.817 111.762 491.254 116.314 494.116 119.569C496.99 122.835 500.651 124.463 505.134 124.463Z" fill="#FF93C8"/>
<path d="M376.772 57.3288C382.394 57.3288 387.607 58.2506 392.431 60.0715C397.244 61.9037 401.498 64.6465 405.159 68.311V59.0358H442.157V152.948H403.266V108.826C403.266 102.305 401.92 97.5249 399.217 94.4863C396.525 91.4591 393.001 89.9341 388.633 89.9341C380.946 89.9341 377.102 95.3171 377.102 106.072V152.948H338.211V99.3799C338.211 85.3022 341.735 74.7752 348.795 67.7875C355.855 60.8112 365.173 57.3174 376.76 57.3174L376.772 57.3288Z" fill="#FF93C8"/>
<path d="M292.282 154.679C281.847 154.679 272.951 153.245 265.617 150.388C258.272 147.532 252.775 143.697 249.102 138.883C245.43 134.08 243.594 128.754 243.594 122.916C243.594 115.245 245.635 109.35 249.707 105.23C253.779 101.11 258.477 98.3108 263.815 96.82C269.153 95.3291 275.665 94.1342 283.341 93.2124C288.279 92.6433 291.883 92.0402 294.175 91.4142C296.468 90.7883 297.62 89.7299 297.62 88.239C297.62 85.2687 293.377 83.7779 284.892 83.7779C275.026 83.7779 265.959 86.0654 257.702 90.6403L247.038 65.0568C251.851 62.5417 257.679 60.6184 264.499 59.3097C271.32 58.0009 278.3 57.3408 285.405 57.3408C295.612 57.3408 304.36 58.7748 311.648 61.6313C318.936 64.4992 324.41 68.3231 328.083 73.137C331.755 77.9396 333.592 83.3795 333.592 89.4454C333.592 97.1159 331.561 103.011 327.478 107.131C323.407 111.251 318.674 114.027 313.279 115.461C307.884 116.895 301.349 118.068 293.662 118.978C288.621 119.547 284.972 120.127 282.736 120.696C280.501 121.265 279.383 122.301 279.383 123.792C279.383 125.283 280.273 126.398 282.052 127.138C283.831 127.889 286.956 128.253 291.427 128.253C297.05 128.253 302.843 127.513 308.808 126.023C314.773 124.532 319.94 122.472 324.296 119.843L334.96 145.426C330.147 148.169 323.84 150.411 316.028 152.118C308.227 153.837 300.311 154.69 292.282 154.69V154.679Z" fill="#FF93C8"/>
<path d="M220.188 51.4905C213.072 51.4905 207.403 49.5786 203.149 45.7434C198.907 41.9081 196.785 37.0145 196.785 31.0624C196.785 25.4518 198.907 20.8768 203.149 17.3261C207.392 13.7754 213.072 12 220.188 12C227.305 12 232.837 13.8664 237.136 17.5765C241.436 21.2979 243.592 26.0209 243.592 31.7453C243.592 37.4697 241.436 42.1926 237.136 45.9141C232.837 49.6355 227.191 51.4905 220.188 51.4905ZM239.634 152.96H200.743V59.0472H239.634V152.96Z" fill="#FF93C8"/>
<path d="M123.143 59.0471V69.6879C128.88 61.4484 138.175 57.3286 151.017 57.3286C159.047 57.3286 166.528 59.195 173.474 62.9051C180.42 66.6265 185.951 71.9185 190.08 78.7924C194.209 85.6662 196.273 93.5643 196.273 102.487C196.273 111.409 194.209 119.341 190.08 126.272C185.951 133.203 180.42 138.518 173.474 142.239C166.54 145.96 159.047 147.815 151.017 147.815C139.544 147.815 130.887 144.492 125.037 137.857V139.576C125.037 145.983 126.816 150.854 130.374 154.166C133.933 157.489 139.612 159.15 147.413 159.15C152.58 159.15 157.963 158.297 163.586 156.578C169.209 154.86 173.851 152.629 177.523 149.887L190.605 176.324C184.868 180.102 177.934 182.993 169.79 184.996C161.647 186.999 152.877 188 143.467 188C125.116 188 110.974 183.505 101.052 174.526C91.1292 165.535 86.168 152.117 86.168 134.261V59.0585H123.166L123.143 59.0471ZM140.696 117.589C145.281 117.589 149.124 116.189 152.226 113.378C155.329 110.578 156.868 106.936 156.868 102.475C156.868 98.0141 155.351 94.4065 152.306 91.6638C149.272 88.9211 145.395 87.544 140.696 87.544C135.997 87.544 132.29 88.9211 129.256 91.6638C126.223 94.4065 124.694 98.0141 124.694 102.475C124.694 106.936 126.211 110.578 129.256 113.378C132.302 116.189 136.111 117.589 140.696 117.589Z" fill="#FF93C8"/>
<path d="M21.2838 122.744C23.8043 124.463 26.7354 125.316 30.0543 125.316C32.4608 125.316 34.4111 124.52 35.9051 122.915C37.3992 121.311 38.1405 119.08 38.1405 116.223V92.5291H18.8659V64.2029H38.1405V37.9365H77.032V116.576C77.032 129.277 73.4736 138.814 66.3682 145.164C59.2628 151.515 49.1008 154.69 35.9165 154.69C25.823 154.69 17.8508 153.028 12 149.705L21.2952 122.744H21.2838Z" fill="#FF93C8"/>
<path d="M712.902 59.0472V152.96H675.904V145.232C670.282 151.526 661.682 154.678 650.094 154.678C641.837 154.678 634.23 152.709 627.296 148.749C620.35 144.8 614.853 139.109 610.781 131.667C606.709 124.224 604.668 115.643 604.668 105.912C604.668 96.182 606.698 87.6238 610.781 80.2492C614.853 72.8632 620.361 67.1957 627.296 63.2467C634.23 59.2976 641.837 57.3174 650.094 57.3174C660.53 57.3174 668.502 60.0032 674.011 65.3862V59.0358H712.902V59.0472ZM670.396 119.569C673.258 116.303 674.695 111.762 674.695 105.924C674.695 100.086 673.258 95.5675 670.396 92.3581C667.522 89.1602 663.86 87.5555 659.378 87.5555C654.896 87.5555 651.235 89.1602 648.361 92.3581C645.498 95.5675 644.061 100.086 644.061 105.924C644.061 111.762 645.498 116.314 648.361 119.569C651.224 122.835 654.896 124.463 659.378 124.463C663.86 124.463 667.522 122.835 670.396 119.569Z" fill="#FF93C8"/>
<path d="M815.71 67.7996C822.77 74.7872 826.294 85.3142 826.294 99.392V152.96H787.403V106.084C787.403 95.3291 783.559 89.9461 775.872 89.9461C771.515 89.9461 767.98 91.4597 765.288 94.4984C762.597 97.537 761.251 102.305 761.251 108.838V152.96H722.359V59.0479H759.358V68.3231C763.03 64.6585 767.273 61.9158 772.086 60.0835C776.899 58.2513 782.122 57.3408 787.745 57.3408C799.332 57.3408 808.65 60.8347 815.71 67.8109V67.7996Z" fill="#FF93C8"/>
<path d="M848.487 152.106C840.686 150.387 834.379 148.157 829.566 145.414L840.23 119.831C844.587 122.46 849.753 124.531 855.718 126.01C861.683 127.501 867.477 128.241 873.1 128.241C877.571 128.241 880.695 127.865 882.475 127.126C884.254 126.386 885.144 125.271 885.144 123.78C885.144 122.289 884.026 121.265 881.79 120.684C879.555 120.115 875.905 119.546 870.864 118.966C863.177 118.055 856.642 116.883 851.247 115.449C845.853 114.015 841.12 111.238 837.048 107.119C832.977 102.999 830.935 97.1037 830.935 89.4332C830.935 83.3673 832.771 77.9274 836.444 73.1248C840.116 68.3222 845.591 64.487 852.878 61.6191C860.166 58.7626 868.903 57.3286 879.122 57.3286C886.227 57.3286 893.207 57.9887 900.027 59.2975C906.847 60.6176 912.675 62.5295 917.488 65.0446L906.825 90.6281C898.567 86.0532 889.5 83.7657 879.635 83.7657C871.149 83.7657 866.907 85.2565 866.907 88.2268C866.907 89.7177 868.047 90.7761 870.351 91.402C872.643 92.0279 876.259 92.6311 881.186 93.2001C888.873 94.122 895.385 95.3169 900.711 96.8078C906.049 98.2986 910.748 101.098 914.82 105.218C918.891 109.338 920.933 115.233 920.933 122.903C920.933 128.742 919.097 134.068 915.424 138.87C911.752 143.673 906.243 147.52 898.91 150.376C891.565 153.233 882.68 154.667 872.244 154.667C864.215 154.667 856.3 153.813 848.499 152.095L848.487 152.106Z" fill="#FF93C8"/>
<path d="M927.377 45.9141C923.077 42.1926 920.922 37.4697 920.922 31.7453C920.922 26.0209 923.077 21.2979 927.377 17.5765C931.677 13.855 937.322 12 944.325 12C951.328 12 957.11 13.7754 961.364 17.3261C965.607 20.8768 967.728 25.4518 967.728 31.0624C967.728 37.0145 965.607 41.9081 961.364 45.7434C957.122 49.5786 951.442 51.4905 944.325 51.4905C937.208 51.4905 931.677 49.6355 927.377 45.9141ZM924.879 59.0472H963.771V152.96H924.879V59.0472Z" fill="#FF93C8"/>
<path d="M1078.37 59.0472V134.25C1078.37 152.106 1073.41 165.524 1063.48 174.514C1053.56 183.494 1039.42 187.989 1021.07 187.989C1011.66 187.989 1002.89 186.987 994.744 184.985C986.601 182.982 979.655 180.091 973.93 176.313L987 149.875C990.672 152.618 995.314 154.86 1000.94 156.567C1006.56 158.286 1011.95 159.139 1017.11 159.139C1024.91 159.139 1030.59 157.478 1034.15 154.155C1037.71 150.831 1039.49 145.972 1039.49 139.565V137.846C1033.64 144.481 1024.98 147.804 1013.51 147.804C1005.48 147.804 997.995 145.949 991.049 142.228C984.103 138.506 978.572 133.192 974.443 126.261C970.314 119.341 968.25 111.409 968.25 102.475C968.25 93.5417 970.314 85.655 974.443 78.7811C978.572 71.9186 984.103 66.6153 991.049 62.8939C997.983 59.1724 1005.48 57.3174 1013.51 57.3174C1026.35 57.3174 1035.64 61.4371 1041.38 69.6767V59.0358H1078.38L1078.37 59.0472ZM1035.26 113.389C1038.29 110.59 1039.82 106.948 1039.82 102.487C1039.82 98.0256 1038.3 94.418 1035.26 91.6753C1032.21 88.9326 1028.4 87.5555 1023.82 87.5555C1019.23 87.5555 1015.24 88.9326 1012.21 91.6753C1009.16 94.418 1007.64 98.0256 1007.64 102.487C1007.64 106.948 1009.19 110.59 1012.29 113.389C1015.39 116.2 1019.22 117.6 1023.82 117.6C1028.41 117.6 1032.22 116.2 1035.26 113.389Z" fill="#FF93C8"/>
<path d="M1152.52 149.706C1146.67 153.029 1138.7 154.69 1128.61 154.69C1115.41 154.69 1105.26 151.515 1098.16 145.165C1091.04 138.814 1087.49 129.278 1087.49 116.577V37.9258H1126.38V64.1921H1145.66V92.5183H1126.38V116.213C1126.38 119.081 1127.12 121.311 1128.62 122.904C1130.1 124.509 1132.06 125.306 1134.47 125.306C1137.8 125.306 1140.72 124.452 1143.24 122.734L1152.54 149.694L1152.52 149.706Z" fill="#FF93C8"/>
<path d="M567.672 97.0928V96.4669H577.457V97.0928H567.672ZM575.142 113.686C573.796 113.686 572.77 113.299 572.051 112.525C571.344 111.751 570.991 110.738 570.991 109.475V92.7227H571.652V109.316C571.652 110.533 571.949 111.455 572.553 112.092C573.146 112.73 574.024 113.048 575.176 113.048C576.328 113.048 577.275 112.696 578.028 111.99L578.495 112.457C578.096 112.878 577.594 113.185 576.99 113.378C576.385 113.572 575.77 113.674 575.154 113.674L575.142 113.686Z" fill="#FF93C8"/>
<path d="M583.769 91.7317C583.553 91.7317 583.347 91.6406 583.176 91.4699C582.994 91.2992 582.914 91.0943 582.914 90.8781C582.914 90.6391 583.005 90.4343 583.176 90.2636C583.347 90.0928 583.553 90.0132 583.769 90.0132C584.009 90.0132 584.214 90.0928 584.385 90.2636C584.556 90.4343 584.636 90.6391 584.636 90.8781C584.636 91.0943 584.556 91.2992 584.385 91.4699C584.214 91.652 584.02 91.7317 583.769 91.7317ZM583.427 113.582V96.466H584.089V113.582H583.427Z" fill="#FF93C8"/>
<path d="M591.562 113.583V89.0127H592.224V113.583H591.562Z" fill="#FF93C8"/>
<path d="M478.501 47.0471V53.3974C484.009 48.0144 491.982 45.3286 502.417 45.3286C510.675 45.3286 518.282 47.2975 525.216 51.2579C532.162 55.2069 537.659 60.8745 541.731 68.2604C545.802 75.6464 547.844 84.2046 547.844 93.9236C547.844 103.643 545.814 112.235 541.731 119.678C537.659 127.121 532.15 132.811 525.216 136.76C518.282 140.709 510.675 142.689 502.417 142.689C490.83 142.689 482.23 139.537 476.608 133.243V140.971H439.609V47.0585H478.501V47.0471ZM493.134 112.463C497.604 112.463 501.277 110.835 504.151 107.569C507.025 104.303 508.451 99.7618 508.451 93.9236C508.451 88.0854 507.014 83.5673 504.151 80.358C501.288 77.16 497.616 75.5554 493.134 75.5554C488.651 75.5554 484.99 77.16 482.116 80.358C479.254 83.5673 477.817 88.0854 477.817 93.9236C477.817 99.7618 479.254 104.314 482.116 107.569C484.99 110.835 488.651 112.463 493.134 112.463Z" fill="white"/>
<path d="M364.772 45.3288C370.394 45.3288 375.607 46.2506 380.431 48.0715C385.244 49.9037 389.498 52.6465 393.159 56.311V47.0358H430.157V140.948H391.266V96.8258C391.266 90.3047 389.92 85.5249 387.217 82.4863C384.525 79.4591 381.001 77.9341 376.633 77.9341C368.946 77.9341 365.102 83.3171 365.102 94.0717V140.948H326.211V87.3799C326.211 73.3022 329.735 62.7752 336.795 55.7875C343.855 48.8112 353.173 45.3174 364.76 45.3174L364.772 45.3288Z" fill="white"/>
<path d="M280.282 142.679C269.847 142.679 260.951 141.245 253.617 138.388C246.272 135.532 240.775 131.697 237.102 126.883C233.43 122.08 231.594 116.754 231.594 110.916C231.594 103.245 233.635 97.35 237.707 93.2302C241.779 89.1105 246.477 86.3108 251.815 84.82C257.153 83.3291 263.665 82.1342 271.341 81.2124C276.279 80.6433 279.883 80.0402 282.175 79.4142C284.468 78.7883 285.62 77.7299 285.62 76.239C285.62 73.2687 281.377 71.7779 272.892 71.7779C263.026 71.7779 253.959 74.0654 245.702 78.6403L235.038 53.0568C239.851 50.5417 245.679 48.6184 252.499 47.3097C259.32 46.0009 266.3 45.3408 273.405 45.3408C283.612 45.3408 292.36 46.7748 299.648 49.6313C306.936 52.4992 312.41 56.3231 316.083 61.137C319.755 65.9396 321.592 71.3795 321.592 77.4454C321.592 85.1159 319.561 91.011 315.478 95.1308C311.407 99.2505 306.674 102.027 301.279 103.461C295.884 104.895 289.349 106.068 281.662 106.978C276.621 107.547 272.972 108.127 270.736 108.696C268.501 109.265 267.383 110.301 267.383 111.792C267.383 113.283 268.273 114.398 270.052 115.138C271.831 115.889 274.956 116.253 279.427 116.253C285.05 116.253 290.843 115.513 296.808 114.023C302.773 112.532 307.94 110.472 312.296 107.843L322.96 133.426C318.147 136.169 311.84 138.411 304.028 140.118C296.227 141.837 288.311 142.69 280.282 142.69V142.679Z" fill="white"/>
<path d="M208.188 39.4905C201.072 39.4905 195.403 37.5786 191.149 33.7434C186.907 29.9081 184.785 25.0145 184.785 19.0624C184.785 13.4518 186.907 8.87684 191.149 5.3261C195.392 1.77537 201.072 0 208.188 0C215.305 0 220.837 1.86641 225.136 5.57648C229.436 9.29792 231.592 14.0209 231.592 19.7453C231.592 25.4697 229.436 30.1926 225.136 33.9141C220.837 37.6355 215.191 39.4905 208.188 39.4905ZM227.634 140.96H188.743V47.0472H227.634V140.96Z" fill="white"/>
<path d="M111.143 47.0471V57.6879C116.88 49.4484 126.175 45.3286 139.017 45.3286C147.047 45.3286 154.528 47.195 161.474 50.9051C168.42 54.6265 173.951 59.9185 178.08 66.7924C182.209 73.6662 184.273 81.5643 184.273 90.4867C184.273 99.409 182.209 107.341 178.08 114.272C173.951 121.203 168.42 126.518 161.474 130.239C154.54 133.96 147.047 135.815 139.017 135.815C127.544 135.815 118.887 132.492 113.037 125.857V127.576C113.037 133.983 114.816 138.854 118.374 142.166C121.933 145.489 127.612 147.15 135.413 147.15C140.58 147.15 145.963 146.297 151.586 144.578C157.209 142.86 161.851 140.629 165.523 137.887L178.605 164.324C172.868 168.102 165.934 170.993 157.79 172.996C149.647 174.999 140.877 176 131.467 176C113.116 176 98.9741 171.505 89.0516 162.526C79.1292 153.535 74.168 140.117 74.168 122.261V47.0585H111.166L111.143 47.0471ZM128.696 105.589C133.281 105.589 137.124 104.189 140.226 101.378C143.329 98.5783 144.868 94.9365 144.868 90.4753C144.868 86.0141 143.351 82.4065 140.306 79.6638C137.272 76.9211 133.395 75.544 128.696 75.544C123.997 75.544 120.29 76.9211 117.256 79.6638C114.223 82.4065 112.694 86.0141 112.694 90.4753C112.694 94.9365 114.211 98.5783 117.256 101.378C120.302 104.189 124.111 105.589 128.696 105.589Z" fill="white"/>
<path d="M9.28376 110.744C11.8043 112.463 14.7354 113.316 18.0543 113.316C20.4608 113.316 22.4111 112.52 23.9051 110.915C25.3992 109.311 26.1405 107.08 26.1405 104.223V80.5291H6.86588V52.2029H26.1405V25.9365H65.032V104.576C65.032 117.277 61.4736 126.814 54.3682 133.164C47.2628 139.515 37.1008 142.69 23.9165 142.69C13.823 142.69 5.85083 141.028 0 137.705L9.29517 110.744H9.28376Z" fill="white"/>
<path d="M700.902 47.0472V140.96H663.904V133.232C658.282 139.526 649.682 142.678 638.094 142.678C629.837 142.678 622.23 140.709 615.296 136.749C608.35 132.8 602.853 127.109 598.781 119.667C594.709 112.224 592.668 103.643 592.668 93.9124C592.668 84.182 594.698 75.6238 598.781 68.2492C602.853 60.8632 608.361 55.1957 615.296 51.2467C622.23 47.2976 629.837 45.3174 638.094 45.3174C648.53 45.3174 656.502 48.0032 662.011 53.3862V47.0358H700.902V47.0472ZM658.396 107.569C661.258 104.303 662.695 99.762 662.695 93.9238C662.695 88.0855 661.258 83.5675 658.396 80.3581C655.522 77.1602 651.86 75.5555 647.378 75.5555C642.896 75.5555 639.235 77.1602 636.361 80.3581C633.498 83.5675 632.061 88.0855 632.061 93.9238C632.061 99.762 633.498 104.314 636.361 107.569C639.224 110.835 642.896 112.463 647.378 112.463C651.86 112.463 655.522 110.835 658.396 107.569Z" fill="white"/>
<path d="M803.71 55.7996C810.77 62.7872 814.294 73.3142 814.294 87.392V140.96H775.403V94.0838C775.403 83.3291 771.559 77.9461 763.872 77.9461C759.515 77.9461 755.98 79.4597 753.288 82.4984C750.597 85.537 749.251 90.3054 749.251 96.8379V140.96H710.359V47.0479H747.358V56.3231C751.03 52.6585 755.273 49.9158 760.086 48.0835C764.899 46.2513 770.122 45.3408 775.745 45.3408C787.332 45.3408 796.65 48.8347 803.71 55.8109V55.7996Z" fill="white"/>
<path d="M836.487 140.106C828.686 138.387 822.379 136.157 817.566 133.414L828.23 107.831C832.587 110.46 837.753 112.531 843.718 114.01C849.683 115.501 855.477 116.241 861.1 116.241C865.571 116.241 868.695 115.865 870.475 115.126C872.254 114.386 873.144 113.271 873.144 111.78C873.144 110.289 872.026 109.265 869.79 108.684C867.555 108.115 863.905 107.546 858.864 106.966C851.177 106.055 844.642 104.883 839.247 103.449C833.853 102.015 829.12 99.2383 825.048 95.1186C820.977 90.9988 818.935 85.1037 818.935 77.4332C818.935 71.3673 820.771 65.9274 824.444 61.1248C828.116 56.3222 833.591 52.487 840.878 49.6191C848.166 46.7626 856.903 45.3286 867.122 45.3286C874.227 45.3286 881.207 45.9887 888.027 47.2975C894.847 48.6176 900.675 50.5295 905.488 53.0446L894.825 78.6281C886.567 74.0532 877.5 71.7657 867.635 71.7657C859.149 71.7657 854.907 73.2565 854.907 76.2268C854.907 77.7177 856.047 78.7761 858.351 79.402C860.643 80.0279 864.259 80.6311 869.186 81.2001C876.873 82.122 883.385 83.3169 888.711 84.8078C894.049 86.2986 898.748 89.0983 902.82 93.218C906.891 97.3378 908.933 103.233 908.933 110.903C908.933 116.742 907.097 122.068 903.424 126.87C899.752 131.673 894.243 135.52 886.91 138.376C879.565 141.233 870.68 142.667 860.244 142.667C852.215 142.667 844.3 141.813 836.499 140.095L836.487 140.106Z" fill="white"/>
<path d="M915.377 33.9141C911.077 30.1926 908.922 25.4697 908.922 19.7453C908.922 14.0209 911.077 9.29792 915.377 5.57648C919.677 1.85503 925.322 0 932.325 0C939.328 0 945.11 1.77537 949.364 5.3261C953.607 8.87684 955.728 13.4518 955.728 19.0624C955.728 25.0145 953.607 29.9081 949.364 33.7434C945.122 37.5786 939.442 39.4905 932.325 39.4905C925.208 39.4905 919.677 37.6355 915.377 33.9141ZM912.879 47.0472H951.771V140.96H912.879V47.0472Z" fill="white"/>
<path d="M1066.37 47.0472V122.25C1066.37 140.106 1061.41 153.524 1051.48 162.514C1041.56 171.494 1027.42 175.989 1009.07 175.989C999.658 175.989 990.887 174.987 982.744 172.985C974.601 170.982 967.655 168.091 961.93 164.313L975 137.875C978.672 140.618 983.314 142.86 988.937 144.567C994.56 146.286 999.954 147.139 1005.11 147.139C1012.91 147.139 1018.59 145.478 1022.15 142.155C1025.71 138.831 1027.49 133.972 1027.49 127.565V125.846C1021.64 132.481 1012.98 135.804 1001.51 135.804C993.476 135.804 985.995 133.949 979.049 130.228C972.103 126.506 966.572 121.192 962.443 114.261C958.314 107.341 956.25 99.4092 956.25 90.4754C956.25 81.5417 958.314 73.655 962.443 66.7811C966.572 59.9186 972.103 54.6153 979.049 50.8939C985.983 47.1724 993.476 45.3174 1001.51 45.3174C1014.35 45.3174 1023.64 49.4371 1029.38 57.6767V47.0358H1066.38L1066.37 47.0472ZM1023.26 101.389C1026.29 98.5898 1027.82 94.948 1027.82 90.4868C1027.82 86.0256 1026.3 82.418 1023.26 79.6753C1020.21 76.9326 1016.4 75.5555 1011.82 75.5555C1007.23 75.5555 1003.24 76.9326 1000.21 79.6753C997.16 82.418 995.643 86.0256 995.643 90.4868C995.643 94.948 997.194 98.5898 1000.29 101.389C1003.39 104.2 1007.22 105.6 1011.82 105.6C1016.41 105.6 1020.22 104.2 1023.26 101.389Z" fill="white"/>
<path d="M1140.52 137.706C1134.67 141.029 1126.7 142.69 1116.61 142.69C1103.41 142.69 1093.26 139.515 1086.16 133.165C1079.04 126.814 1075.49 117.278 1075.49 104.577V25.9258H1114.38V52.1921H1133.66V80.5183H1114.38V104.213C1114.38 107.081 1115.12 109.311 1116.62 110.904C1118.1 112.509 1120.06 113.306 1122.47 113.306C1125.8 113.306 1128.72 112.452 1131.24 110.734L1140.54 137.694L1140.52 137.706Z" fill="white"/>
<path d="M555.672 85.0928V84.4669H565.457V85.0928H555.672ZM563.142 101.686C561.796 101.686 560.77 101.299 560.051 100.525C559.344 99.7509 558.991 98.7381 558.991 97.4748V80.7227H559.652V97.3155C559.652 98.5332 559.949 99.4551 560.553 100.092C561.146 100.73 562.024 101.048 563.176 101.048C564.328 101.048 565.275 100.696 566.028 99.9899L566.495 100.457C566.096 100.878 565.594 101.185 564.99 101.378C564.385 101.572 563.77 101.674 563.154 101.674L563.142 101.686Z" fill="white"/>
<path d="M571.769 79.7317C571.553 79.7317 571.347 79.6406 571.176 79.4699C570.994 79.2992 570.914 79.0943 570.914 78.8781C570.914 78.6391 571.005 78.4343 571.176 78.2636C571.347 78.0928 571.553 78.0132 571.769 78.0132C572.009 78.0132 572.214 78.0928 572.385 78.2636C572.556 78.4343 572.636 78.6391 572.636 78.8781C572.636 79.0943 572.556 79.2992 572.385 79.4699C572.214 79.652 572.02 79.7317 571.769 79.7317ZM571.427 101.582V84.466H572.089V101.582H571.427Z" fill="white"/>
<path d="M579.562 101.583V77.0127H580.224V101.583H579.562Z" fill="white"/>
</svg>
