<svg width="447" height="168" viewBox="0 0 447 168" fill="none" xmlns="http://www.w3.org/2000/svg">
<path d="M18.2406 45.7019L18.0476 59.0203L10.5527 60.5852L10.7191 46.2888L0.699219 31.1866L8.19414 29.6217L14.6711 39.5881L20.3131 27.092L28.8359 25.3115L18.2373 45.7085L18.2406 45.7019Z" fill="#FFCAE3"/>
<path d="M59.6831 41.4082C59.1941 43.1157 58.6019 44.3524 58.3258 44.9459C57.4409 46.6898 55.4216 50.2772 50.8242 52.4389C50.1755 52.7539 48.5688 53.4004 46.5961 53.8115C41.0273 54.9753 37.2648 53.4435 35.372 52.1007C33.7918 50.9602 31.4166 48.3807 30.392 43.5169C29.9529 41.4248 29.9496 39.5084 29.9795 38.7923C30.1492 34.7009 31.4865 30.2316 34.0746 27.0189C34.71 26.2165 36.0207 24.7842 38.2462 23.4746C39.1178 22.9375 41.1736 21.8832 43.9181 21.3096C47.6872 20.5205 51.5594 20.8719 54.7197 22.9276C58.8215 25.6363 59.7363 29.7675 60.0756 31.3887C60.4449 33.1393 60.9605 36.8626 59.6797 41.4082H59.6831ZM51.1802 29.6846C49.6233 27.6024 46.8123 26.9891 44.2707 27.6522C43.336 27.8909 42.5342 28.3285 42.2947 28.4645C40.7412 29.3696 38.8783 31.1401 38.1165 35.175C37.7073 37.2671 37.6574 40.2179 38.0865 42.2669C38.3194 43.3776 38.6454 44.2894 39.2375 45.1912C40.7445 47.4623 43.173 48.3807 45.8176 47.7806C48.2161 47.28 49.6765 45.7283 50.2121 45.0785C52.7404 42.0083 53.2926 36.5477 52.5275 32.9205C52.4277 32.4497 52.105 30.9146 51.1769 29.6812L51.1802 29.6846Z" fill="#FFCAE3"/>
<path d="M92.1567 32.7528C92.1201 35.3455 91.8939 37.8885 90.5965 40.2094C88.697 43.7271 84.6651 45.8159 80.9393 46.595C80.2108 46.7476 78.2747 47.1089 76.0491 46.9498C72.0572 46.6713 69.8317 44.8179 68.8503 43.5514C68.3646 42.9413 67.6061 41.6715 67.1936 39.7087C66.851 38.0874 66.8477 36.5722 66.8477 34.878L67.0872 17.3158L74.6686 15.7309L74.4257 34.9874C74.4025 35.3057 74.3858 36.2871 74.6021 37.3116C74.7185 37.8653 74.9048 38.3195 75.2175 38.7439C75.8429 39.5927 77.4397 40.5973 79.8814 40.0867C81.3818 39.775 83.3644 39.0025 84.1229 35.5909C84.2526 34.941 84.4123 34.4172 84.4423 33.0744L84.9047 13.5924L92.4428 12.0176L92.1567 32.7528Z" fill="#FFCAE3"/>
<path d="M123.841 36.9166L116.476 38.455L106.456 20.3622L106.24 40.5935L99.3008 42.0423L99.8996 10.4555L107.351 8.89718L117.478 27.0562L117.504 6.77525L124.4 5.33301L123.845 36.9099L123.841 36.9166Z" fill="#FFCAE3"/>
<path d="M159.816 29.3999L153.05 30.8123L153.077 28.1765C153.033 28.1864 152.155 29.5292 151.576 30.1824C150.811 31.0112 149.065 32.49 146.197 33.0901C142.934 33.7267 139.185 33.1299 136.463 31.2466C134.787 30.0829 131.989 27.4139 130.858 22.0328C129.916 17.5503 130.549 12.6964 132.545 8.80065C133.842 6.25765 136.856 1.8845 144.008 0.389201C148.163 -0.479463 153.136 -0.002029 156.39 2.92557C157.551 3.97658 157.987 4.77562 158.762 6.12835L151.962 9.51017C151.603 8.87359 151.227 8.14749 150.718 7.63027C149.92 6.81466 147.997 5.74706 145.212 6.33059C142.684 6.85776 140.914 8.43263 139.797 10.7601C138.459 13.5352 138.27 17.3182 138.888 20.2624C139.005 20.8161 139.258 22.013 139.99 23.3756C141.467 26.1408 144.121 27.5034 147.292 26.8403C149.434 26.3927 151.506 24.9803 152.371 22.928C152.79 21.95 152.92 20.8525 153.013 19.8081L146.716 21.1244L146.789 15.0935L160.066 12.3184L159.813 29.3933L159.816 29.3999Z" fill="#FFCAE3"/>
<path d="M31.9716 87.9218C31.2663 86.8442 30.947 86.2971 30.4946 85.7799C29.4866 84.5598 26.6589 82.1561 22.2079 83.0844C20.2452 83.4955 16.7822 84.898 14.5167 89.3905C13.3058 91.7545 11.4296 97.119 12.8401 103.836C14.7296 112.496 20.1787 114.694 24.1706 113.862C25.5445 113.574 28.0661 112.573 30.1918 109.678C31.955 107.334 32.5371 105.239 33.1925 102.513L43.9375 105.852C43.1591 108.329 42.8663 109.207 42.2509 110.494C40.6441 113.892 36.253 121.279 25.9271 123.507C23.8346 123.945 18.0696 124.807 12.1847 122.158C5.70445 119.29 2.13497 113.362 0.681225 106.449C0.0391832 103.379 -0.0240229 100.806 0.00591686 99.6421C0.0890828 93.2232 2.50422 86.1811 6.89206 81.3836C11.6325 76.3075 17.7136 74.6962 20.0689 74.2022C25.9737 73.0351 30.428 74.0795 32.5604 74.7923C34.4533 75.3493 36.2064 76.208 37.7666 77.4514C39.8923 79.1191 41.0766 80.8464 42.5137 83.1308L31.9749 87.9218H31.9716Z" fill="#FFCAE3"/>
<path d="M90.5037 82.6367C90.0081 84.1718 89.2329 85.6936 88.195 86.9336C86.9243 88.356 85.5038 89.4037 82.1638 91.393L93.531 108.083L80.9662 110.709L71.4088 95.4777L63.3583 97.1587L63.0357 114.452L51.582 116.846L52.3671 68.6088L72.7195 64.355C73.7009 64.1495 74.6157 63.9572 75.6137 63.8179C76.951 63.6753 80.0148 63.3073 83.4646 64.7661C85.7965 65.7774 89.5157 68.201 90.8464 74.527C91.1358 75.8963 91.6115 79.1323 90.5004 82.6334L90.5037 82.6367ZM77.796 74.1955C76.3023 72.9422 74.8186 72.7068 71.5452 73.3898L63.7575 75.0177L63.528 88.2068L73.2152 86.1843C73.478 86.1313 74.6423 85.8196 75.6469 85.4052C77.5797 84.5233 78.6675 83.207 79.2796 81.2409C79.8385 79.3544 79.6156 77.9685 79.4526 77.186C79.3428 76.6655 79.0401 75.2299 77.7993 74.1955H77.796Z" fill="#FFCAE3"/>
<path d="M134.321 60.6831L112.398 65.2652L112.249 74.6248L133.386 70.2086L133.26 79.0179L112.122 83.4342L111.916 95.1213L137.112 89.8563L137.052 98.9938L100.402 106.653L101.251 58.4021L134.497 51.4561L134.321 60.6864V60.6831Z" fill="#FFCAE3"/>
<path d="M176.84 90.6775L174.328 81.6692L157.313 85.2235L154.129 95.422L142.023 97.9517L160.543 46.0076L173.5 43.2988L188.097 88.3235L176.84 90.6742V90.6775ZM166.827 54.7738L160.27 75.8903L172.05 73.4302L166.827 54.7738Z" fill="#FFCAE3"/>
<path d="M225.445 41.7774L213.469 44.2806L212.9 83.145L201.317 85.5653L201.886 46.7009L189.191 49.3533L189.601 39.9373L225.858 32.3613L225.448 41.7774H225.445Z" fill="#FFCAE3"/>
<path d="M245.884 76.2479L234.367 78.655L235.019 30.4442L246.536 28.0371L245.884 76.2479Z" fill="#FFCAE3"/>
<path d="M282.267 68.6464L268.784 71.4646L253.535 26.5792L264.989 24.1854L275.145 57.198L284.885 20.0278L296.991 17.498L282.267 68.6464Z" fill="#FFCAE3"/>
<path d="M337.258 18.2739L315.336 22.856L315.186 32.2157L336.323 27.7994L336.197 36.6087L315.06 41.025L314.853 52.7121L340.049 47.4471L339.989 56.5847L303.34 64.2435L304.188 15.9929L337.435 9.04688L337.258 18.2773V18.2739Z" fill="#FFCAE3"/>
<path d="M376.886 15.3719C376.46 14.6425 375.862 13.7473 375.186 13.1406C372.631 10.7468 368.21 10.5114 365.003 11.1811C364.415 11.3038 363.237 11.5491 361.96 12.2951C359.664 13.7274 359.145 15.8096 359.365 16.8539C359.418 17.1159 359.621 17.7524 360.167 18.389C361.57 19.8644 364.588 19.9175 368.882 20.5176C371.337 20.8226 373.886 21.2437 376.331 21.8206C378.842 22.3842 385.349 24.0884 386.966 31.787C387.857 36.0275 386.793 40.0625 384.112 43.5504C379.448 49.6311 372.236 51.07 370.01 51.5375C360.323 53.56 353.666 51.1396 350.313 48.8453C349.125 48.0728 348.357 47.3467 346.438 45.364L355.25 36.9161C355.37 37.1648 356.101 38.3716 356.883 39.1607C358.616 40.908 362.495 43.4344 368.453 42.1911C371.071 41.644 372.505 40.6626 373.31 39.9498C375.273 38.2456 375.413 36.3094 375.193 35.265C374.81 33.7796 373.686 32.6523 370.612 31.9992C366.537 31.1471 362.289 31.0841 358.187 30.0994C356.098 29.5822 349.604 27.9443 348.107 20.8359C347.805 19.4003 347.529 16.4627 348.913 12.9715C350.632 8.80057 354.458 4.255 364.471 2.16291C366.174 1.80815 374.039 0.233287 380.249 3.76762C382.122 4.875 383.736 6.37693 385.349 7.87554L376.883 15.3653L376.886 15.3719Z" fill="#FFCAE3"/>
<path d="M130.987 159.518C127.804 161.467 124.667 162.664 117.198 164.222L100.379 167.737L101.221 119.864L119.337 116.078C120.572 115.819 121.783 115.77 122.977 115.654C127.983 115.282 130.971 116.28 132.947 117.285C136.124 118.85 139.926 122.109 141.656 130.328C144.038 141.654 140.714 153.563 130.984 159.514L130.987 159.518ZM126.583 126.658C125.129 125.544 123.705 125.232 123.08 125.159C121.749 124.963 120.528 124.95 117.864 125.507L112.149 126.701L111.706 156.182L116.773 155.125C120.605 154.326 124.317 153.278 126.822 150.052C128.725 147.492 131.816 141.239 129.966 132.775C129.204 129.151 127.94 127.659 126.58 126.661L126.583 126.658Z" fill="#FFCAE3"/>
<path d="M185.203 111.436L163.45 115.981L163.304 125.268L184.278 120.885L184.152 129.628L163.177 134.011L162.974 145.605L187.974 140.38L187.914 149.445L151.551 157.044L152.396 109.171L185.383 102.278L185.206 111.436H185.203Z" fill="#FFCAE3"/>
<path d="M234.471 139.716L223.303 142.051L208.11 114.621L207.784 145.293L197.266 147.491L198.174 99.6054L209.474 97.2447L224.824 124.777L224.863 94.0287L235.319 91.8438L234.474 139.716H234.471Z" fill="#FFCAE3"/>
<path d="M294.989 127.071L284.341 129.296L285.089 92.2518L275.379 131.169L265.768 133.179L256.926 97.5998L256.61 135.095L245.895 137.333L246.543 89.5L263.492 85.959L270.575 115.759L278.492 82.8258L295.701 79.2285L294.989 127.075V127.071Z" fill="#FFCAE3"/>
<path d="M336.485 118.401L333.993 109.463L317.11 112.991L313.95 123.109L301.938 125.619L320.314 74.083L333.171 71.3975L347.652 116.067L336.481 118.401H336.485ZM326.548 82.7796L320.041 103.73L331.731 101.287L326.548 82.7763V82.7796Z" fill="#FFCAE3"/>
<path d="M393.474 80.6181C392.982 82.1399 392.214 83.6518 391.186 84.8785C389.925 86.2909 388.514 87.3287 385.201 89.3047L396.482 105.866L384.013 108.472L374.529 93.3596L366.542 95.0273L366.219 112.188L354.855 114.562L355.634 66.7029L375.83 62.4822C376.805 62.28 377.713 62.0877 378.701 61.9484C380.028 61.8059 383.069 61.4412 386.492 62.8867C388.804 63.8913 392.496 66.2951 393.817 72.5713C394.103 73.9307 394.576 77.1434 393.474 80.6148V80.6181ZM380.866 72.2398C379.386 70.9965 377.912 70.7644 374.666 71.4408L366.938 73.0554L366.708 86.1417L376.319 84.1325C376.578 84.0795 377.733 83.7711 378.731 83.36C380.65 82.488 381.728 81.1784 382.337 79.2289C382.892 77.3556 382.67 75.983 382.506 75.2072C382.397 74.69 382.097 73.2676 380.866 72.2398Z" fill="#FFCAE3"/>
<path d="M427.981 70.6347L447 95.3054L434.987 97.8152L421.375 79.5136L414.282 89.3043L414.142 102.172L403.234 104.453L403.946 56.6068L414.791 54.3423L414.518 73.99L430.569 51.0433L444.205 48.1953L427.978 70.638L427.981 70.6347Z" fill="#FFCAE3"/>
</svg>
