<svg width="1141" height="170" viewBox="0 0 1141 170" fill="none" xmlns="http://www.w3.org/2000/svg">
<path d="M478.501 45.2865V51.3993C484.009 46.2177 491.982 43.6323 502.417 43.6323C510.675 43.6323 518.282 45.5275 525.216 49.3398C532.162 53.1411 537.659 58.5965 541.731 65.7062C545.802 72.8158 547.844 81.0538 547.844 90.4091C547.844 99.7645 545.814 108.035 541.731 115.2C537.659 122.364 532.15 127.842 525.216 131.643C518.282 135.444 510.675 137.35 502.417 137.35C490.83 137.35 482.23 134.316 476.608 128.258V135.696H439.609V45.2975H478.501V45.2865ZM493.134 108.254C497.604 108.254 501.277 106.688 504.151 103.544C507.025 100.4 508.451 96.0289 508.451 90.4091C508.451 84.7894 507.014 80.4403 504.151 77.3511C501.288 74.2728 497.616 72.7282 493.134 72.7282C488.651 72.7282 484.99 74.2728 482.116 77.3511C479.254 80.4403 477.817 84.7894 477.817 90.4091C477.817 96.0289 479.254 100.411 482.116 103.544C484.99 106.688 488.651 108.254 493.134 108.254Z" fill="#FF93C8"/>
<path d="M364.772 43.6325C370.394 43.6325 375.607 44.5199 380.431 46.2726C385.244 48.0363 389.498 50.6764 393.159 54.2039V45.2757H430.157V135.674H391.266V93.2028C391.266 86.9257 389.92 82.3247 387.217 79.3998C384.525 76.4859 381.001 75.0179 376.633 75.0179C368.946 75.0179 365.102 80.1995 365.102 90.5518V135.674H326.211V84.1104C326.211 70.5593 329.735 60.4262 336.795 53.7C343.855 46.9847 353.173 43.6216 364.76 43.6216L364.772 43.6325Z" fill="#FF93C8"/>
<path d="M280.282 137.341C269.847 137.341 260.951 135.96 253.617 133.211C246.272 130.461 240.775 126.769 237.102 122.135C233.43 117.512 231.594 112.386 231.594 106.766C231.594 99.3823 233.635 93.7078 237.707 89.7422C241.779 85.7765 246.477 83.0817 251.815 81.6466C257.153 80.2115 263.665 79.0613 271.341 78.1739C276.279 77.6262 279.883 77.0456 282.175 76.4431C284.468 75.8406 285.62 74.8218 285.62 73.3867C285.62 70.5275 281.377 69.0924 272.892 69.0924C263.026 69.0924 253.959 71.2943 245.702 75.6982L235.038 51.0719C239.851 48.6509 245.679 46.7995 252.499 45.5397C259.32 44.2799 266.3 43.6445 273.405 43.6445C283.612 43.6445 292.36 45.0248 299.648 47.7745C306.936 50.5351 312.41 54.2159 316.083 58.8497C319.755 63.4727 321.592 68.709 321.592 74.5479C321.592 81.9314 319.561 87.606 315.478 91.5716C311.407 95.5372 306.674 98.2102 301.279 99.5905C295.884 100.971 289.349 102.099 281.662 102.976C276.621 103.523 272.972 104.082 270.736 104.63C268.501 105.177 267.383 106.174 267.383 107.609C267.383 109.044 268.273 110.118 270.052 110.83C271.831 111.553 274.956 111.904 279.427 111.904C285.05 111.904 290.843 111.192 296.808 109.757C302.773 108.321 307.94 106.339 312.296 103.808L322.96 128.434C318.147 131.074 311.84 133.233 304.028 134.876C296.227 136.53 288.311 137.352 280.282 137.352V137.341Z" fill="#FF93C8"/>
<path d="M208.188 38.013C201.072 38.013 195.403 36.1726 191.149 32.4809C186.907 28.7891 184.785 24.0786 184.785 18.3492C184.785 12.9485 186.907 8.54471 191.149 5.12683C195.392 1.70894 201.072 0 208.188 0C215.305 0 220.837 1.79658 225.136 5.36783C229.436 8.95004 231.592 13.4963 231.592 19.0065C231.592 24.5167 229.436 29.063 225.136 32.6452C220.837 36.2274 215.191 38.013 208.188 38.013ZM227.634 135.686H188.743V45.287H227.634V135.686Z" fill="#FF93C8"/>
<path d="M111.143 45.2865V55.5292C116.88 47.5979 126.175 43.6323 139.017 43.6323C147.047 43.6323 154.528 45.4289 161.474 49.0002C168.42 52.5824 173.951 57.6763 178.08 64.293C182.209 70.9097 184.273 78.5123 184.273 87.1008C184.273 95.6893 182.209 103.325 178.08 109.996C173.951 116.668 168.42 121.784 161.474 125.366C154.54 128.948 147.047 130.734 139.017 130.734C127.544 130.734 118.887 127.535 113.037 121.148V122.802C113.037 128.97 114.816 133.659 118.374 136.846C121.933 140.045 127.612 141.645 135.413 141.645C140.58 141.645 145.963 140.823 151.586 139.169C157.209 137.515 161.851 135.367 165.523 132.727L178.605 158.175C172.868 161.812 165.934 164.595 157.79 166.523C149.647 168.451 140.877 169.415 131.467 169.415C113.116 169.415 98.9741 165.088 89.0516 156.444C79.1292 147.79 74.168 134.875 74.168 117.686V45.2975H111.166L111.143 45.2865ZM128.696 101.638C133.281 101.638 137.124 100.29 140.226 97.5845C143.329 94.8896 144.868 91.3841 144.868 87.0899C144.868 82.7956 143.351 79.3229 140.306 76.6828C137.272 74.0427 133.395 72.7172 128.696 72.7172C123.997 72.7172 120.29 74.0427 117.256 76.6828C114.223 79.3229 112.694 82.7956 112.694 87.0899C112.694 91.3841 114.211 94.8896 117.256 97.5845C120.302 100.29 124.111 101.638 128.696 101.638Z" fill="#FF93C8"/>
<path d="M9.28376 106.601C11.8043 108.255 14.7354 109.077 18.0543 109.077C20.4608 109.077 22.4111 108.31 23.9051 106.765C25.3992 105.221 26.1405 103.074 26.1405 100.324V77.5163H6.86588V50.2499H26.1405V24.9663H65.032V100.664C65.032 112.889 61.4736 122.069 54.3682 128.182C47.2628 134.295 37.1008 137.351 23.9165 137.351C13.823 137.351 5.85083 135.752 0 132.553L9.29517 106.601H9.28376Z" fill="#FF93C8"/>
<path d="M700.902 45.2867V135.685H663.904V128.247C658.282 134.305 649.682 137.34 638.094 137.34C629.837 137.34 622.23 135.444 615.296 131.632C608.35 127.831 602.853 122.353 598.781 115.189C594.709 108.025 592.668 99.7647 592.668 90.3984C592.668 81.0321 594.698 72.7941 598.781 65.6954C602.853 58.5858 608.361 53.1303 615.296 49.329C622.23 45.5277 629.837 43.6216 638.094 43.6216C648.53 43.6216 656.502 46.2069 662.011 51.3885V45.2757H700.902V45.2867ZM658.396 103.544C661.258 100.4 662.695 96.0291 662.695 90.4094C662.695 84.7896 661.258 80.4405 658.396 77.3513C655.522 74.273 651.86 72.7284 647.378 72.7284C642.896 72.7284 639.235 74.273 636.361 77.3513C633.498 80.4405 632.061 84.7896 632.061 90.4094C632.061 96.0291 633.498 100.411 636.361 103.544C639.224 106.688 642.896 108.255 647.378 108.255C651.86 108.255 655.522 106.688 658.396 103.544Z" fill="#FF93C8"/>
<path d="M803.71 53.712C810.77 60.4382 814.294 70.5713 814.294 84.1224V135.686H775.403V90.5638C775.403 80.2115 771.559 75.0299 763.872 75.0299C759.515 75.0299 755.98 76.4869 753.288 79.4118C750.597 82.3367 749.251 86.9268 749.251 93.2148V135.686H710.359V45.2877H747.358V54.2159C751.03 50.6884 755.273 48.0483 760.086 46.2846C764.899 44.5209 770.122 43.6445 775.745 43.6445C787.332 43.6445 796.65 47.0076 803.71 53.7229V53.712Z" fill="#FF93C8"/>
<path d="M836.487 134.864C828.686 133.209 822.379 131.062 817.566 128.422L828.23 103.796C832.587 106.326 837.753 108.32 843.718 109.744C849.683 111.179 855.477 111.891 861.1 111.891C865.571 111.891 868.695 111.53 870.475 110.818C872.254 110.106 873.144 109.032 873.144 107.597C873.144 106.162 872.026 105.176 869.79 104.617C867.555 104.07 863.905 103.522 858.864 102.963C851.177 102.087 844.642 100.959 839.247 99.5783C833.853 98.198 829.12 95.525 825.048 91.5594C820.977 87.5938 818.935 81.9192 818.935 74.5357C818.935 68.6968 820.771 63.4604 824.444 58.8375C828.116 54.2146 833.591 50.5229 840.878 47.7623C848.166 45.0126 856.903 43.6323 867.122 43.6323C874.227 43.6323 881.207 44.2677 888.027 45.5275C894.847 46.7983 900.675 48.6387 905.488 51.0597L894.825 75.6859C886.567 71.2821 877.5 69.0802 867.635 69.0802C859.149 69.0802 854.907 70.5153 854.907 73.3745C854.907 74.8096 856.047 75.8284 858.351 76.4309C860.643 77.0334 864.259 77.614 869.186 78.1617C876.873 79.0491 883.385 80.1993 888.711 81.6344C894.049 83.0695 898.748 85.7643 902.82 89.7299C906.891 93.6956 908.933 99.3701 908.933 106.754C908.933 112.373 907.097 117.5 903.424 122.123C899.752 126.746 894.243 130.449 886.91 133.198C879.565 135.948 870.68 137.328 860.244 137.328C852.215 137.328 844.3 136.507 836.499 134.853L836.487 134.864Z" fill="#FF93C8"/>
<path d="M915.377 32.6452C911.077 29.063 908.922 24.5167 908.922 19.0065C908.922 13.4963 911.077 8.95004 915.377 5.36783C919.677 1.78563 925.322 0 932.325 0C939.328 0 945.11 1.70894 949.364 5.12683C953.607 8.54471 955.728 12.9485 955.728 18.3492C955.728 24.0786 953.607 28.7891 949.364 32.4809C945.122 36.1726 939.442 38.013 932.325 38.013C925.208 38.013 919.677 36.2274 915.377 32.6452ZM912.879 45.287H951.771V135.686H912.879V45.287Z" fill="#FF93C8"/>
<path d="M1066.37 45.2867V117.676C1066.37 134.864 1061.41 147.779 1051.48 156.434C1041.56 165.077 1027.42 169.404 1009.07 169.404C999.658 169.404 990.887 168.44 982.744 166.512C974.601 164.584 967.655 161.802 961.93 158.165L975 132.717C978.672 135.357 983.314 137.515 988.937 139.158C994.56 140.812 999.954 141.634 1005.11 141.634C1012.91 141.634 1018.59 140.034 1022.15 136.836C1025.71 133.637 1027.49 128.959 1027.49 122.792V121.137C1021.64 127.524 1012.98 130.723 1001.51 130.723C993.476 130.723 985.995 128.937 979.049 125.355C972.103 121.773 966.572 116.657 962.443 109.985C958.314 103.325 956.25 95.6895 956.25 87.0901C956.25 78.4906 958.314 70.8989 962.443 64.2823C966.572 57.6765 972.103 52.5716 979.049 48.9894C985.983 45.4072 993.476 43.6216 1001.51 43.6216C1014.35 43.6216 1023.64 47.5872 1029.38 55.5184V45.2757H1066.38L1066.37 45.2867ZM1023.26 97.5957C1026.29 94.9008 1027.82 91.3953 1027.82 87.101C1027.82 82.8067 1026.3 79.3341 1023.26 76.694C1020.21 74.0539 1016.4 72.7284 1011.82 72.7284C1007.23 72.7284 1003.24 74.0539 1000.21 76.694C997.16 79.3341 995.643 82.8067 995.643 87.101C995.643 91.3953 997.194 94.9008 1000.29 97.5957C1003.39 100.301 1007.22 101.649 1011.82 101.649C1016.41 101.649 1020.22 100.301 1023.26 97.5957Z" fill="#FF93C8"/>
<path d="M1140.52 132.553C1134.67 135.752 1126.7 137.351 1116.61 137.351C1103.41 137.351 1093.26 134.295 1086.16 128.182C1079.04 122.069 1075.49 112.889 1075.49 100.664V24.9556H1114.38V50.2391H1133.66V77.5055H1114.38V100.313C1114.38 103.074 1115.12 105.221 1116.62 106.755C1118.1 108.299 1120.06 109.066 1122.47 109.066C1125.8 109.066 1128.72 108.245 1131.24 106.59L1140.54 132.542L1140.52 132.553Z" fill="#FF93C8"/>
<path d="M555.672 81.9088V81.3063H565.457V81.9088H555.672ZM563.142 97.8808C561.796 97.8808 560.77 97.5083 560.051 96.7634C559.344 96.0185 558.991 95.0435 558.991 93.8275V77.7021H559.652V93.6742C559.652 94.8463 559.949 95.7337 560.553 96.3471C561.146 96.9606 562.024 97.2673 563.176 97.2673C564.328 97.2673 565.275 96.9277 566.028 96.2485L566.495 96.6977C566.096 97.103 565.594 97.3988 564.99 97.585C564.385 97.7713 563.77 97.8698 563.154 97.8698L563.142 97.8808Z" fill="#FF93C8"/>
<path d="M571.769 76.7489C571.553 76.7489 571.347 76.6613 571.176 76.4969C570.994 76.3326 570.914 76.1354 570.914 75.9273C570.914 75.6972 571.005 75.5001 571.176 75.3357C571.347 75.1714 571.553 75.0947 571.769 75.0947C572.009 75.0947 572.214 75.1714 572.385 75.3357C572.556 75.5001 572.636 75.6972 572.636 75.9273C572.636 76.1354 572.556 76.3326 572.385 76.4969C572.214 76.6722 572.02 76.7489 571.769 76.7489ZM571.427 97.782V81.3061H572.089V97.782H571.427Z" fill="#FF93C8"/>
<path d="M579.562 97.7827V74.1313H580.224V97.7827H579.562Z" fill="#FF93C8"/>
</svg>
