<?xml version="1.0" encoding="UTF-8"?><svg id="Layer_1" xmlns="http://www.w3.org/2000/svg" xmlns:xlink="http://www.w3.org/1999/xlink" viewBox="0 0 64.6 64.6"><defs><clipPath id="clippath"><rect y="0" width="64.6" height="64.6" fill="none"/></clipPath></defs><g clip-path="url(#clippath)"><path d="M26.16,37.01c-.48-.37-.96-.48-1.17-.5-.44-.07-.85-.07-1.74.12l-1.9.4-.15,9.84,1.69-.35c1.27-.27,2.51-.62,3.34-1.69.63-.85,1.66-2.94,1.05-5.77-.25-1.21-.67-1.71-1.13-2.04" fill="#fff"/><path d="M44.46,45.07l-4.53-6.11-2.36,3.27-.05,4.3-3.63.76.24-15.98,3.61-.76-.09,6.56,5.34-7.66,4.54-.95-5.4,7.49,6.33,8.24-4,.84ZM31.59,22.61c-.21-1.01-.23-1.87-.22-2.25.03-2.13.82-4.46,2.27-6.05,1.56-1.68,3.57-2.22,4.35-2.38,1.95-.39,3.42-.04,4.12.2.62.19,1.2.47,1.72.88.7.55,1.09,1.12,1.57,1.88l-3.48,1.59c-.23-.36-.34-.54-.49-.71-.33-.41-1.27-1.2-2.74-.89-.65.13-1.79.6-2.54,2.09-.4.78-1.02,2.56-.55,4.79.62,2.87,2.42,3.6,3.74,3.32.45-.1,1.29-.43,1.99-1.39.58-.78.78-1.47.99-2.37l3.55,1.11c-.26.82-.35,1.11-.56,1.54-.53,1.13-1.98,3.57-5.39,4.31-.69.15-2.59.43-4.54-.45-2.14-.95-3.32-2.91-3.8-5.21M27.63,47.99c-1.06.65-2.1,1.05-4.59,1.57l-5.6,1.17.28-15.99,6.03-1.26c.41-.09.81-.1,1.21-.14,1.67-.12,2.66.21,3.32.54,1.06.52,2.32,1.61,2.9,4.36.79,3.78-.31,7.76-3.55,9.75M20.97,15.88l3.27,5.05,2.85-6.33,4.3-.9-5.35,10.33-.1,6.74-3.78.79.08-7.24-5.06-7.65,3.78-.79ZM32.3,0C14.46,0,0,14.46,0,32.3s14.46,32.3,32.3,32.3,32.3-14.46,32.3-32.3S50.14,0,32.3,0" fill="#fff"/></g></svg>