<svg width="615" height="95" viewBox="0 0 615 95" fill="none" xmlns="http://www.w3.org/2000/svg">
<path d="M257.892 25.3564V28.779C260.86 25.8778 265.157 24.4302 270.781 24.4302C275.232 24.4302 279.332 25.4914 283.069 27.6259C286.812 29.7542 289.775 32.8088 291.97 36.7895C294.164 40.7702 295.264 45.3827 295.264 50.6208C295.264 55.8589 294.17 60.4898 291.97 64.5012C289.775 68.5126 286.806 71.5794 283.069 73.7078C279.332 75.8362 275.232 76.9034 270.781 76.9034C264.536 76.9034 259.902 75.2044 256.871 71.8125V75.9772H236.931V25.3626H257.892V25.3564ZM265.778 60.6125C268.188 60.6125 270.167 59.7354 271.716 57.975C273.265 56.2147 274.033 53.7674 274.033 50.6208C274.033 47.4743 273.259 45.0392 271.716 43.3095C270.173 41.586 268.194 40.7211 265.778 40.7211C263.362 40.7211 261.389 41.586 259.84 43.3095C258.297 45.0392 257.523 47.4743 257.523 50.6208C257.523 53.7674 258.297 56.2208 259.84 57.975C261.389 59.7354 263.362 60.6125 265.778 60.6125Z" fill="white"/>
<path d="M196.595 24.4302C199.625 24.4302 202.435 24.927 205.035 25.9084C207.629 26.8959 209.921 28.3741 211.895 30.3492V25.3502H231.835V75.9649H210.874V52.1849C210.874 48.6703 210.149 46.0942 208.692 44.4565C207.241 42.8249 205.342 42.003 202.988 42.003C198.845 42.003 196.773 44.9042 196.773 50.7005V75.9649H175.812V47.094C175.812 39.5067 177.712 33.8331 181.517 30.067C185.322 26.3071 190.344 24.4241 196.589 24.4241L196.595 24.4302Z" fill="white"/>
<path d="M151.059 76.8972C145.435 76.8972 140.64 76.1244 136.688 74.5849C132.729 73.0453 129.766 70.9783 127.787 68.3838C125.808 65.7954 124.818 62.9248 124.818 59.7783C124.818 55.6442 125.918 52.467 128.113 50.2466C130.307 48.0263 132.84 46.5174 135.717 45.7139C138.593 44.9104 142.103 44.2664 146.24 43.7695C148.902 43.4629 150.844 43.1378 152.079 42.8004C153.315 42.4631 153.936 41.8926 153.936 41.0891C153.936 39.4883 151.649 38.6848 147.076 38.6848C141.759 38.6848 136.872 39.9176 132.422 42.3833L126.674 28.5949C129.268 27.2394 132.409 26.2028 136.085 25.4975C139.761 24.7921 143.523 24.4363 147.353 24.4363C152.854 24.4363 157.569 25.2092 161.496 26.7487C165.424 28.2944 168.375 30.3553 170.354 32.9498C172.333 35.5382 173.323 38.4701 173.323 41.7393C173.323 45.8734 172.229 49.0506 170.028 51.271C167.834 53.4913 165.283 54.9879 162.375 55.7608C159.468 56.5336 155.946 57.1654 151.803 57.6561C149.086 57.9627 147.119 58.2756 145.914 58.5822C144.709 58.8889 144.107 59.4471 144.107 60.2506C144.107 61.0541 144.586 61.6552 145.545 62.0539C146.504 62.4587 148.188 62.655 150.598 62.655C153.628 62.655 156.751 62.2563 159.966 61.4528C163.181 60.6493 165.965 59.5391 168.313 58.1222L174.061 71.9106C171.467 73.3888 168.067 74.5971 163.857 75.5172C159.652 76.4434 155.386 76.9034 151.059 76.9034V76.8972Z" fill="white"/>
<path d="M112.205 21.2837C108.369 21.2837 105.314 20.2532 103.021 18.1862C100.735 16.1192 99.5914 13.4817 99.5914 10.2738C99.5914 7.24995 100.735 4.78423 103.021 2.87054C105.308 0.956846 108.369 0 112.205 0C116.04 0 119.022 1.00592 121.339 3.00548C123.656 5.01117 124.818 7.55663 124.818 10.6418C124.818 13.7271 123.656 16.2725 121.339 18.2782C119.022 20.2839 115.979 21.2837 112.205 21.2837ZM122.685 75.9711H101.724V25.3564H122.685V75.9711Z" fill="white"/>
<path d="M59.9011 25.3564V31.0914C62.993 26.6506 68.0027 24.4302 74.9241 24.4302C79.2515 24.4302 83.2838 25.4362 87.0272 27.4357C90.7707 29.4414 93.7519 32.2935 95.9771 35.9983C98.2022 39.703 99.3148 43.9597 99.3148 48.7685C99.3148 53.5772 98.2022 57.8524 95.9771 61.5877C93.7519 65.3231 90.7707 68.1875 87.0272 70.1932C83.2899 72.1989 79.2515 73.1987 74.9241 73.1987C68.7403 73.1987 64.0749 71.4077 60.9215 67.8318V68.7579C60.9215 72.2112 61.8804 74.8364 63.7982 76.6213C65.7161 78.4123 68.7772 79.3078 72.9817 79.3078C75.7662 79.3078 78.6675 78.8478 81.6979 77.9216C84.7283 76.9954 87.2301 75.7932 89.2094 74.315L96.2598 88.5634C93.168 90.5998 89.4307 92.1577 85.0418 93.2373C80.6529 94.3168 75.926 94.8565 70.8549 94.8565C60.9646 94.8565 53.3424 92.4337 47.9947 87.5943C42.6469 82.7487 39.973 75.5172 39.973 65.8935V25.3626H59.9134L59.9011 25.3564ZM69.3612 56.9078C71.8322 56.9078 73.9037 56.1533 75.5756 54.6383C77.2476 53.1295 78.0774 51.1667 78.0774 48.7623C78.0774 46.358 77.2599 44.4136 75.6187 42.9354C73.9836 41.4572 71.8937 40.715 69.3612 40.715C66.8287 40.715 64.8309 41.4572 63.1959 42.9354C61.5608 44.4136 60.7371 46.358 60.7371 48.7623C60.7371 51.1667 61.5546 53.1295 63.1959 54.6383C64.8371 56.1533 66.8901 56.9078 69.3612 56.9078Z" fill="white"/>
<path d="M5.00354 59.6863C6.362 60.6125 7.94175 61.0725 9.73048 61.0725C11.0275 61.0725 12.0786 60.6431 12.8838 59.7783C13.6891 58.9135 14.0886 57.7113 14.0886 56.1717V43.4015H3.70041V28.1349H14.0886V13.9785H35.0494V56.3619C35.0494 63.207 33.1316 68.347 29.3021 71.7695C25.4726 75.1921 19.9957 76.9034 12.89 76.9034C7.45 76.9034 3.15334 76.0079 0 74.2169L5.00969 59.6863H5.00354Z" fill="white"/>
<path d="M377.755 25.3564V75.9711H357.815V71.8063C354.784 75.1982 350.15 76.8972 343.905 76.8972C339.454 76.8972 335.354 75.8361 331.617 73.7016C327.874 71.5733 324.911 68.5064 322.716 64.495C320.522 60.4837 319.422 55.8589 319.422 50.6147C319.422 45.3704 320.516 40.7579 322.716 36.7833C324.911 32.8026 327.88 29.7481 331.617 27.6197C335.354 25.4913 339.454 24.4241 343.905 24.4241C349.529 24.4241 353.826 25.8716 356.795 28.7728V25.3502H377.755V25.3564ZM354.846 57.975C356.389 56.2147 357.163 53.7673 357.163 50.6208C357.163 47.4742 356.389 45.0392 354.846 43.3095C353.297 41.586 351.324 40.7211 348.908 40.7211C346.492 40.7211 344.519 41.586 342.97 43.3095C341.427 45.0392 340.653 47.4742 340.653 50.6208C340.653 53.7673 341.427 56.2208 342.97 57.975C344.513 59.7354 346.492 60.6125 348.908 60.6125C351.324 60.6125 353.297 59.7354 354.846 57.975Z" fill="white"/>
<path d="M433.163 30.0731C436.968 33.8392 438.867 39.5128 438.867 47.1001V75.9711H417.907V50.7067C417.907 44.9104 415.835 42.0092 411.692 42.0092C409.344 42.0092 407.438 42.825 405.988 44.4626C404.537 46.1003 403.812 48.6703 403.812 52.191V75.9711H382.851V25.3564H402.791V30.3553C404.771 28.3803 407.057 26.9021 409.651 25.9145C412.245 24.927 415.061 24.4363 418.091 24.4363C424.336 24.4363 429.358 26.3194 433.163 30.0793V30.0731Z" fill="white"/>
<path d="M450.829 75.5111C446.625 74.5849 443.226 73.3827 440.632 71.9045L446.379 58.1161C448.727 59.533 451.512 60.6493 454.726 61.4467C457.941 62.2502 461.064 62.6489 464.094 62.6489C466.504 62.6489 468.188 62.4465 469.147 62.0478C470.106 61.6491 470.585 61.048 470.585 60.2445C470.585 59.441 469.983 58.889 468.778 58.5761C467.573 58.2695 465.606 57.9628 462.889 57.65C458.746 57.1593 455.224 56.5275 452.317 55.7547C449.409 54.9818 446.858 53.4852 444.664 51.2648C442.47 49.0445 441.369 45.8673 441.369 41.7332C441.369 38.464 442.359 35.5321 444.338 32.9437C446.317 30.3553 449.268 28.2883 453.196 26.7426C457.124 25.2031 461.832 24.4302 467.34 24.4302C471.169 24.4302 474.931 24.786 478.607 25.4914C482.283 26.2029 485.424 27.2333 488.018 28.5888L482.27 42.3772C477.82 39.9115 472.933 38.6787 467.616 38.6787C463.043 38.6787 460.756 39.4822 460.756 41.083C460.756 41.8865 461.371 42.457 462.613 42.7943C463.848 43.1317 465.797 43.4567 468.452 43.7634C472.595 44.2603 476.105 44.9043 478.976 45.7078C481.852 46.5113 484.385 48.0202 486.579 50.2405C488.774 52.4609 489.874 55.6381 489.874 59.7722C489.874 62.9187 488.884 65.7893 486.905 68.3777C484.926 70.9661 481.957 73.0392 478.004 74.5788C474.046 76.1183 469.258 76.8911 463.633 76.8911C459.306 76.8911 455.04 76.4311 450.835 75.5049L450.829 75.5111Z" fill="white"/>
<path d="M493.347 18.2782C491.03 16.2725 489.868 13.7271 489.868 10.6418C489.868 7.55663 491.03 5.01117 493.347 3.00548C495.664 0.999782 498.707 0 502.481 0C506.255 0 509.372 0.956846 511.665 2.87054C513.951 4.78423 515.095 7.24995 515.095 10.2738C515.095 13.4817 513.951 16.1192 511.665 18.1862C509.378 20.2532 506.317 21.2837 502.481 21.2837C498.646 21.2837 495.664 20.2839 493.347 18.2782ZM492.001 25.3564H512.962V75.9711H492.001V25.3564Z" fill="white"/>
<path d="M574.725 25.3564V65.8874C574.725 75.511 572.051 82.7426 566.704 87.5882C561.356 92.4276 553.734 94.8504 543.843 94.8504C538.772 94.8504 534.045 94.3106 529.656 93.2311C525.268 92.1516 521.524 90.5936 518.438 88.5573L525.483 74.3088C527.462 75.787 529.964 76.9954 532.994 77.9154C536.025 78.8416 538.932 79.3016 541.71 79.3016C545.915 79.3016 548.976 78.4061 550.894 76.6151C552.812 74.8241 553.771 72.205 553.771 68.7518V67.8256C550.617 71.4015 545.952 73.1925 539.768 73.1925C535.441 73.1925 531.408 72.1927 527.665 70.187C523.921 68.1814 520.94 65.317 518.715 61.5816C516.49 57.8523 515.377 53.5772 515.377 48.7623C515.377 43.9474 516.49 39.6968 518.715 35.9921C520.94 32.2935 523.921 29.4352 527.665 27.4295C531.402 25.4239 535.441 24.4241 539.768 24.4241C546.689 24.4241 551.699 26.6444 554.791 31.0852V25.3502H574.731L574.725 25.3564ZM551.49 54.6444C553.125 53.1356 553.949 51.1728 553.949 48.7684C553.949 46.364 553.131 44.4197 551.49 42.9415C549.849 41.4633 547.796 40.7211 545.325 40.7211C542.854 40.7211 540.702 41.4633 539.067 42.9415C537.426 44.4197 536.609 46.364 536.609 48.7684C536.609 51.1728 537.445 53.1356 539.11 54.6444C540.782 56.1594 542.848 56.9139 545.325 56.9139C547.802 56.9139 549.855 56.1594 551.49 54.6444Z" fill="white"/>
<path d="M614.692 74.2169C611.539 76.0079 607.242 76.9034 601.802 76.9034C594.69 76.9034 589.22 75.1921 585.39 71.7696C581.555 68.347 579.643 63.207 579.643 56.3619V13.9724H600.604V28.1288H610.992V43.3954H600.604V56.1656C600.604 57.7113 601.003 58.9135 601.808 59.7722C602.607 60.637 603.665 61.0664 604.962 61.0664C606.757 61.0664 608.33 60.6064 609.689 59.6802L614.698 74.2107L614.692 74.2169Z" fill="white"/>
<path d="M299.481 45.8612V45.5238H304.755V45.8612H299.481ZM303.507 54.804C302.782 54.804 302.229 54.5954 301.842 54.1784C301.46 53.7613 301.27 53.2154 301.27 52.5346V43.5059H301.626V52.4487C301.626 53.105 301.786 53.6018 302.112 53.9453C302.432 54.2888 302.905 54.4605 303.526 54.4605C304.147 54.4605 304.657 54.2704 305.063 53.8901L305.315 54.1416C305.099 54.3685 304.829 54.5341 304.503 54.6384C304.177 54.7427 303.845 54.7979 303.514 54.7979L303.507 54.804Z" fill="white"/>
<path d="M308.161 42.9722C308.044 42.9722 307.933 42.9231 307.841 42.8311C307.743 42.7391 307.7 42.6287 307.7 42.5122C307.7 42.3834 307.749 42.273 307.841 42.181C307.933 42.089 308.044 42.046 308.161 42.046C308.29 42.046 308.4 42.089 308.493 42.181C308.585 42.273 308.628 42.3834 308.628 42.5122C308.628 42.6287 308.585 42.7391 308.493 42.8311C308.4 42.9293 308.296 42.9722 308.161 42.9722ZM307.976 54.7488V45.5238H308.333V54.7488H307.976Z" fill="white"/>
<path d="M312.359 54.7488V41.5063H312.715V54.7488H312.359Z" fill="white"/>
</svg>
