<svg width="1141" height="176" viewBox="0 0 1141 176" fill="none" xmlns="http://www.w3.org/2000/svg">
<path d="M478.5 47.0466V53.3969C484.008 48.0139 491.981 45.3281 502.416 45.3281C510.674 45.3281 518.281 47.297 525.215 51.2574C532.161 55.2065 537.658 60.874 541.73 68.26C545.801 75.6459 547.843 84.2041 547.843 93.9231C547.843 103.642 545.813 112.234 541.73 119.677C537.658 127.12 532.149 132.81 525.215 136.76C518.281 140.709 510.674 142.689 502.416 142.689C490.829 142.689 482.229 139.536 476.607 133.243V140.97H439.608V47.058H478.5V47.0466ZM493.133 112.462C497.603 112.462 501.276 110.835 504.15 107.568C507.024 104.302 508.45 99.7614 508.45 93.9231C508.45 88.0849 507.013 83.5668 504.15 80.3575C501.287 77.1596 497.615 75.5549 493.133 75.5549C488.65 75.5549 484.989 77.1596 482.115 80.3575C479.253 83.5668 477.816 88.0849 477.816 93.9231C477.816 99.7614 479.253 104.314 482.115 107.568C484.989 110.835 488.65 112.462 493.133 112.462Z" fill="#00AFF1"/>
<path d="M364.77 45.3278C370.392 45.3278 375.605 46.2496 380.429 48.0705C385.242 49.9028 389.496 52.6455 393.157 56.31V47.0349H430.155V140.947H391.264V96.8248C391.264 90.3038 389.918 85.5239 387.215 82.4853C384.523 79.4581 380.999 77.9331 376.631 77.9331C368.944 77.9331 365.1 83.3161 365.1 94.0707V140.947H326.209V87.379C326.209 73.3012 329.733 62.7742 336.793 55.7865C343.853 48.8102 353.171 45.3164 364.758 45.3164L364.77 45.3278Z" fill="#00AFF1"/>
<path d="M280.281 142.678C269.846 142.678 260.95 141.244 253.616 138.387C246.271 135.531 240.774 131.696 237.101 126.882C233.429 122.079 231.593 116.753 231.593 110.915C231.593 103.244 233.634 97.349 237.706 93.2292C241.778 89.1095 246.476 86.3099 251.814 84.819C257.152 83.3282 263.664 82.1332 271.34 81.2114C276.278 80.6423 279.882 80.0392 282.174 79.4132C284.467 78.7873 285.619 77.7289 285.619 76.2381C285.619 73.2677 281.376 71.7769 272.891 71.7769C263.025 71.7769 253.958 74.0644 245.701 78.6394L235.037 53.0559C239.85 50.5408 245.678 48.6174 252.498 47.3087C259.319 45.9999 266.299 45.3398 273.404 45.3398C283.612 45.3398 292.359 46.7738 299.647 49.6303C306.935 52.4982 312.409 56.3221 316.082 61.1361C319.754 65.9387 321.591 71.3786 321.591 77.4444C321.591 85.1149 319.56 91.01 315.477 95.1298C311.406 99.2496 306.673 102.026 301.278 103.46C295.883 104.894 289.348 106.067 281.661 106.977C276.62 107.546 272.971 108.126 270.735 108.695C268.5 109.264 267.382 110.3 267.382 111.791C267.382 113.282 268.272 114.397 270.051 115.137C271.83 115.888 274.955 116.252 279.426 116.252C285.049 116.252 290.842 115.512 296.807 114.022C302.772 112.531 307.939 110.471 312.295 107.842L322.959 133.425C318.146 136.168 311.839 138.41 304.027 140.117C296.226 141.836 288.31 142.689 280.281 142.689V142.678Z" fill="#00AFF1"/>
<path d="M208.187 39.4905C201.071 39.4905 195.402 37.5786 191.148 33.7434C186.906 29.9081 184.784 25.0145 184.784 19.0624C184.784 13.4518 186.906 8.87684 191.148 5.3261C195.391 1.77537 201.071 0 208.187 0C215.304 0 220.836 1.86641 225.135 5.57648C229.435 9.29792 231.591 14.0209 231.591 19.7453C231.591 25.4697 229.435 30.1926 225.135 33.9141C220.836 37.6355 215.19 39.4905 208.187 39.4905ZM227.633 140.96H188.742V47.0472H227.633V140.96Z" fill="#00AFF1"/>
<path d="M111.142 47.0466V57.6874C116.879 49.4479 126.174 45.3281 139.016 45.3281C147.046 45.3281 154.527 47.1945 161.473 50.9046C168.419 54.626 173.95 59.918 178.079 66.7919C182.208 73.6657 184.272 81.5638 184.272 90.4862C184.272 99.4086 182.208 107.341 178.079 114.272C173.95 121.202 168.419 126.517 161.473 130.238C154.539 133.96 147.046 135.815 139.016 135.815C127.543 135.815 118.886 132.492 113.036 125.857V127.575C113.036 133.983 114.815 138.854 118.373 142.165C121.932 145.488 127.611 147.15 135.412 147.15C140.579 147.15 145.962 146.296 151.585 144.578C157.208 142.86 161.85 140.629 165.522 137.886L178.604 164.323C172.867 168.102 165.933 170.992 157.789 172.995C149.646 174.998 140.876 176 131.466 176C113.115 176 98.9731 171.504 89.0507 162.525C79.1282 153.535 74.167 140.117 74.167 122.261V47.058H111.165L111.142 47.0466ZM128.695 105.588C133.28 105.588 137.123 104.188 140.225 101.377C143.328 98.5778 144.867 94.936 144.867 90.4748C144.867 86.0136 143.35 82.406 140.305 79.6633C137.272 76.9206 133.394 75.5435 128.695 75.5435C123.996 75.5435 120.289 76.9206 117.256 79.6633C114.222 82.406 112.693 86.0136 112.693 90.4748C112.693 94.936 114.21 98.5778 117.256 101.377C120.301 104.188 124.11 105.588 128.695 105.588Z" fill="#00AFF1"/>
<path d="M9.28376 110.745C11.8043 112.464 14.7354 113.317 18.0543 113.317C20.4608 113.317 22.4111 112.521 23.9051 110.916C25.3992 109.311 26.1405 107.081 26.1405 104.224V80.5301H6.86588V52.2038H26.1405V25.9375H65.032V104.577C65.032 117.278 61.4736 126.815 54.3682 133.165C47.2628 139.516 37.1008 142.691 23.9165 142.691C13.823 142.691 5.85083 141.029 0 137.706L9.29517 110.745H9.28376Z" fill="#00AFF1"/>
<path d="M700.904 47.0462V140.959H663.906V133.231C658.284 139.525 649.684 142.677 638.096 142.677C629.839 142.677 622.232 140.708 615.298 136.748C608.352 132.799 602.855 127.108 598.783 119.666C594.711 112.223 592.67 103.642 592.67 93.9114C592.67 84.181 594.7 75.6228 598.783 68.2482C602.855 60.8623 608.363 55.1947 615.298 51.2457C622.232 47.2966 629.839 45.3164 638.096 45.3164C648.532 45.3164 656.504 48.0022 662.013 53.3852V47.0349H700.904V47.0462ZM658.398 107.568C661.26 104.302 662.697 99.761 662.697 93.9228C662.697 88.0846 661.26 83.5665 658.398 80.3572C655.524 77.1592 651.862 75.5546 647.38 75.5546C642.898 75.5546 639.237 77.1592 636.363 80.3572C633.5 83.5665 632.063 88.0846 632.063 93.9228C632.063 99.761 633.5 104.313 636.363 107.568C639.226 110.834 642.898 112.462 647.38 112.462C651.862 112.462 655.524 110.834 658.398 107.568Z" fill="#00AFF1"/>
<path d="M803.708 55.7986C810.768 62.7862 814.292 73.3133 814.292 87.391V140.959H775.401V94.0828C775.401 83.3282 771.557 77.9452 763.87 77.9452C759.513 77.9452 755.978 79.4588 753.286 82.4974C750.595 85.536 749.249 90.3044 749.249 96.8369V140.959H710.357V47.0469H747.356V56.3221C751.028 52.6575 755.271 49.9148 760.084 48.0826C764.897 46.2503 770.12 45.3398 775.743 45.3398C787.33 45.3398 796.648 48.8337 803.708 55.81V55.7986Z" fill="#00AFF1"/>
<path d="M836.487 140.105C828.686 138.387 822.379 136.156 817.566 133.414L828.23 107.83C832.587 110.459 837.753 112.53 843.718 114.01C849.683 115.501 855.477 116.24 861.1 116.24C865.571 116.24 868.695 115.865 870.475 115.125C872.254 114.385 873.144 113.27 873.144 111.779C873.144 110.288 872.026 109.264 869.79 108.684C867.555 108.115 863.905 107.546 858.864 106.965C851.177 106.055 844.642 104.883 839.247 103.449C833.853 102.015 829.12 99.2378 825.048 95.1181C820.977 90.9983 818.935 85.1032 818.935 77.4327C818.935 71.3669 820.771 65.9269 824.444 61.1243C828.116 56.3218 833.591 52.4865 840.878 49.6186C848.166 46.7621 856.903 45.3281 867.122 45.3281C874.227 45.3281 881.207 45.9882 888.027 47.297C894.847 48.6171 900.675 50.529 905.488 53.0442L894.825 78.6276C886.567 74.0527 877.5 71.7652 867.635 71.7652C859.149 71.7652 854.907 73.256 854.907 76.2263C854.907 77.7172 856.047 78.7756 858.351 79.4015C860.643 80.0275 864.259 80.6306 869.186 81.1997C876.873 82.1215 883.385 83.3164 888.711 84.8073C894.049 86.2981 898.748 89.0978 902.82 93.2175C906.891 97.3373 908.933 103.232 908.933 110.903C908.933 116.741 907.097 122.067 903.424 126.87C899.752 131.672 894.243 135.519 886.91 138.376C879.565 141.232 870.68 142.666 860.244 142.666C852.215 142.666 844.3 141.813 836.499 140.094L836.487 140.105Z" fill="#00AFF1"/>
<path d="M915.377 33.9141C911.077 30.1926 908.922 25.4697 908.922 19.7453C908.922 14.0209 911.077 9.29792 915.377 5.57648C919.677 1.85503 925.322 0 932.325 0C939.328 0 945.11 1.77537 949.364 5.3261C953.607 8.87684 955.728 13.4518 955.728 19.0624C955.728 25.0145 953.607 29.9081 949.364 33.7434C945.122 37.5786 939.442 39.4905 932.325 39.4905C925.208 39.4905 919.677 37.6355 915.377 33.9141ZM912.879 47.0472H951.771V140.96H912.879V47.0472Z" fill="#00AFF1"/>
<path d="M1066.36 47.0462V122.249C1066.36 140.105 1061.4 153.523 1051.48 162.513C1041.56 171.493 1027.42 175.988 1009.07 175.988C999.656 175.988 990.885 174.987 982.742 172.984C974.599 170.981 967.653 168.09 961.928 164.312L974.998 137.874C978.671 140.617 983.312 142.859 988.935 144.566C994.558 146.285 999.952 147.138 1005.11 147.138C1012.91 147.138 1018.59 145.477 1022.15 142.154C1025.71 138.83 1027.48 133.971 1027.48 127.564V125.845C1021.63 132.48 1012.98 135.803 1001.5 135.803C993.474 135.803 985.993 133.948 979.047 130.227C972.101 126.505 966.57 121.191 962.441 114.26C958.312 107.34 956.248 99.4082 956.248 90.4745C956.248 81.5407 958.312 73.654 962.441 66.7801C966.57 59.9177 972.101 54.6143 979.047 50.8929C985.981 47.1714 993.474 45.3164 1001.5 45.3164C1014.35 45.3164 1023.64 49.4362 1029.38 57.6757V47.0349H1066.38L1066.36 47.0462ZM1023.25 101.388C1026.29 98.5888 1027.82 94.947 1027.82 90.4858C1027.82 86.0247 1026.3 82.417 1023.25 79.6743C1020.21 76.9316 1016.4 75.5546 1011.81 75.5546C1007.23 75.5546 1003.24 76.9316 1000.2 79.6743C997.158 82.417 995.641 86.0247 995.641 90.4858C995.641 94.947 997.192 98.5888 1000.28 101.388C1003.39 104.199 1007.22 105.599 1011.81 105.599C1016.41 105.599 1020.22 104.199 1023.25 101.388Z" fill="#00AFF1"/>
<path d="M1140.52 137.706C1134.67 141.029 1126.7 142.69 1116.61 142.69C1103.41 142.69 1093.26 139.515 1086.15 133.165C1079.04 126.814 1075.49 117.278 1075.49 104.577V25.9258H1114.38V52.1921H1133.66V80.5183H1114.38V104.213C1114.38 107.081 1115.12 109.311 1116.62 110.904C1118.1 112.509 1120.06 113.306 1122.47 113.306C1125.8 113.306 1128.72 112.452 1131.24 110.734L1140.53 137.694L1140.52 137.706Z" fill="#00AFF1"/>
<path d="M555.671 85.0928V84.4669H565.456V85.0928H555.671ZM563.141 101.686C561.795 101.686 560.769 101.299 560.05 100.525C559.343 99.7509 558.99 98.7381 558.99 97.4748V80.7227H559.651V97.3155C559.651 98.5332 559.948 99.4551 560.552 100.092C561.145 100.73 562.023 101.048 563.175 101.048C564.327 101.048 565.274 100.696 566.027 99.9899L566.494 100.457C566.095 100.878 565.593 101.185 564.989 101.378C564.384 101.572 563.769 101.674 563.153 101.674L563.141 101.686Z" fill="#00AFF1"/>
<path d="M571.771 79.7321C571.555 79.7321 571.349 79.6411 571.178 79.4704C570.996 79.2997 570.916 79.0948 570.916 78.8786C570.916 78.6396 571.007 78.4348 571.178 78.264C571.349 78.0933 571.555 78.0137 571.771 78.0137C572.011 78.0137 572.216 78.0933 572.387 78.264C572.558 78.4348 572.638 78.6396 572.638 78.8786C572.638 79.0948 572.558 79.2997 572.387 79.4704C572.216 79.6525 572.022 79.7321 571.771 79.7321ZM571.429 101.583V84.4665H572.091V101.583H571.429Z" fill="#00AFF1"/>
<path d="M579.563 101.584V77.0137H580.225V101.584H579.563Z" fill="#00AFF1"/>
</svg>
