<?xml version="1.0" encoding="UTF-8"?><svg id="Skærmbillede_2018-06-03_kl._17.19.12_Image" xmlns="http://www.w3.org/2000/svg" viewBox="0 0 1367 582"><path d="M71.71,200.06l-.58,40.17-22.53,4.72.5-43.12-30.12-45.57,22.53-4.72,19.47,30.06,16.96-37.69,25.62-5.37-31.86,61.52Z" fill="#fff"/><path d="M196.28,187.12c-1.47,5.15-3.25,8.88-4.08,10.67-2.66,5.26-8.73,16.08-22.55,22.6-1.95.95-6.78,2.9-12.71,4.14-16.74,3.51-28.05-1.11-33.74-5.16-4.75-3.44-11.89-11.22-14.97-25.89-1.32-6.31-1.33-12.09-1.24-14.25.51-12.34,4.53-25.82,12.31-35.51,1.91-2.42,5.85-6.74,12.54-10.69,2.62-1.62,8.8-4.8,17.05-6.53,11.33-2.38,22.97-1.32,32.47,4.88,12.33,8.17,15.08,20.63,16.1,25.52,1.11,5.28,2.66,16.51-1.19,30.22ZM170.72,151.75c-4.68-6.28-13.13-8.13-20.77-6.13-2.81.72-5.22,2.04-5.94,2.45-4.67,2.73-10.27,8.07-12.56,20.24-1.23,6.31-1.38,15.21-.09,21.39.7,3.35,1.68,6.1,3.46,8.82,4.53,6.85,11.83,9.62,19.78,7.81,7.21-1.51,11.6-6.19,13.21-8.15,7.6-9.26,9.26-25.73,6.96-36.67-.3-1.42-1.27-6.05-4.06-9.77Z" fill="#fff"/><path d="M293.9,161c-.11,7.82-.79,15.49-4.69,22.49-5.71,10.61-17.83,16.91-29.03,19.26-2.19.46-8.01,1.55-14.7,1.07-12-.84-18.69-6.43-21.64-10.25-1.46-1.84-3.74-5.67-4.98-11.59-1.03-4.89-1.04-9.46-1.04-14.57l.72-52.97,22.79-4.78-.73,58.08c-.07.96-.12,3.92.53,7.01.35,1.67.91,3.04,1.85,4.32,1.88,2.56,6.68,5.59,14.02,4.05,4.51-.94,10.47-3.27,12.75-13.56.39-1.96.87-3.54.96-7.59l1.39-58.76,22.66-4.75-.86,62.54Z" fill="#fff"/><path d="M389.13,173.56l-22.14,4.64-30.12-54.57-.65,61.02-20.86,4.37,1.8-95.27,22.4-4.7,30.44,54.77.08-61.17,20.73-4.35-1.67,95.24Z" fill="#fff"/><path d="M497.28,150.89l-20.34,4.26.08-7.95c-.13.03-2.77,4.08-4.51,6.05-2.3,2.5-7.55,6.96-16.17,8.77-9.81,1.92-21.08.12-29.26-5.56-5.04-3.51-13.45-11.56-16.85-27.79-2.83-13.52-.93-28.16,5.07-39.91,3.9-7.67,12.96-20.86,34.46-25.37,12.49-2.62,27.44-1.18,37.22,7.65,3.49,3.17,4.8,5.58,7.13,9.66l-20.44,10.2c-1.08-1.92-2.21-4.11-3.74-5.67-2.4-2.46-8.18-5.68-16.55-3.92-7.6,1.59-12.92,6.34-16.28,13.36-4.02,8.37-4.59,19.78-2.73,28.66.35,1.67,1.11,5.28,3.31,9.39,4.44,8.34,12.42,12.45,21.95,10.45,6.44-1.35,12.67-5.61,15.27-11.8,1.26-2.95,1.65-6.26,1.93-9.41l-18.93,3.97.22-18.19,39.91-8.37-.76,51.5Z" fill="#fff"/><path d="M112.98,327.4c-2.12-3.25-3.08-4.9-4.44-6.46-3.03-3.68-11.53-10.93-24.91-8.13-5.9,1.24-16.31,5.47-23.12,19.02-3.64,7.13-9.28,23.31-5.04,43.57,5.68,26.12,22.06,32.75,34.06,30.24,4.13-.87,11.71-3.89,18.1-12.62,5.3-7.07,7.05-13.39,9.02-21.61l32.3,10.07c-2.34,7.47-3.22,10.12-5.07,14-4.83,10.25-18.03,32.53-49.07,39.25-6.29,1.32-23.62,3.92-41.31-4.07-19.48-8.65-30.21-26.53-34.58-47.38-1.94-9.25-2.13-17.01-2.04-20.52.25-19.36,7.51-40.6,20.7-55.07,14.25-15.31,32.53-20.17,39.61-21.66,17.75-3.52,31.14-.37,37.55,1.78,5.69,1.68,10.96,4.27,15.65,8.02,6.39,5.03,9.95,10.24,14.27,17.13l-31.68,14.45Z" fill="#fff"/><path d="M288.93,311.46c-1.49,4.63-3.82,9.22-6.94,12.96-3.82,4.29-8.09,7.45-18.13,13.45l34.17,50.34-37.77,7.92-28.73-45.94-24.2,5.07-.97,52.16-34.43,7.22,2.36-145.49,61.18-12.83c2.95-.62,5.7-1.2,8.7-1.62,4.02-.43,13.23-1.54,23.6,2.86,7.01,3.05,18.19,10.36,22.19,29.44.87,4.13,2.3,13.89-1.04,24.45ZM250.73,286c-4.49-3.78-8.95-4.49-18.79-2.43l-23.41,4.91-.69,39.78,29.12-6.1c.79-.16,4.29-1.1,7.31-2.35,5.81-2.66,9.08-6.63,10.92-12.56,1.68-5.69,1.01-9.87.52-12.23-.33-1.57-1.24-5.9-4.97-9.02Z" fill="#fff"/><path d="M420.65,245.24l-65.9,13.82-.45,28.23,63.54-13.32-.38,26.57-63.54,13.32-.62,35.25,75.74-15.88-.18,27.56-110.17,23.1,2.55-145.53,99.94-20.95-.53,27.84Z" fill="#fff"/><path d="M548.46,335.71l-7.55-27.17-51.15,10.72-9.57,30.76-36.39,7.63,55.67-156.67,38.95-8.17,43.88,135.8-33.84,7.09ZM518.36,227.42l-19.71,63.69,35.41-7.42-15.7-56.27Z" fill="#fff"/><path d="M694.57,188.22l-36,7.55-1.71,117.22-34.82,7.3,1.71-117.22-38.16,8,1.23-28.4,108.99-22.85-1.23,28.4Z" fill="#fff"/><path d="M756,292.19l-34.62,7.26,1.96-145.41,34.62-7.26-1.96,145.41Z" fill="#fff"/><path d="M865.38,269.26l-40.53,8.5-45.84-135.38,34.43-7.22,30.53,99.57,29.28-112.11,36.39-7.63-44.26,154.27Z" fill="#fff"/><path d="M1030.68,117.33l-65.9,13.82-.45,28.23,63.54-13.32-.38,26.57-63.54,13.32-.62,35.25,75.74-15.88-.18,27.56-110.17,23.1,2.55-145.53,99.94-20.95-.53,27.84Z" fill="#fff"/><path d="M1149.81,108.58c-1.28-2.2-3.08-4.9-5.11-6.73-7.68-7.22-20.97-7.93-30.61-5.91-1.77.37-5.31,1.11-9.15,3.36-6.9,4.32-8.46,10.6-7.8,13.75.16.79.77,2.71,2.41,4.63,4.22,4.45,13.29,4.61,26.2,6.42,7.38.92,15.04,2.19,22.39,3.93,7.55,1.7,27.11,6.84,31.97,30.06,2.68,12.79-.52,24.96-8.58,35.48-14.02,18.34-35.7,22.68-42.39,24.09-29.12,6.1-49.13-1.2-59.21-8.12-3.57-2.33-5.88-4.52-11.65-10.5l26.49-25.48c.36.75,2.56,4.39,4.91,6.77,5.21,5.27,16.87,12.89,34.78,9.14,7.87-1.65,12.18-4.61,14.6-6.76,5.9-5.14,6.32-10.98,5.66-14.13-1.15-4.48-4.53-7.88-13.77-9.85-12.25-2.57-25.02-2.76-37.35-5.73-6.28-1.56-25.8-6.5-30.3-27.94-.91-4.33-1.74-13.19,2.42-23.72,5.17-12.58,16.67-26.29,46.77-32.6,5.12-1.07,28.76-5.82,47.43,4.84,5.63,3.34,10.48,7.87,15.33,12.39l-25.45,22.59Z" fill="#fff"/><path d="M410.62,543.34c-9.57,5.88-19,9.49-41.45,14.19l-50.56,10.6,2.53-144.39,54.46-11.42c3.71-.78,7.35-.93,10.94-1.28,15.05-1.12,24.03,1.89,29.97,4.92,9.55,4.72,20.98,14.55,26.18,39.34,7.16,34.16-2.83,70.08-32.08,88.03ZM397.38,444.23c-4.37-3.36-8.65-4.3-10.53-4.52-4-.59-7.67-.63-15.68,1.05l-17.18,3.6-1.33,88.92,15.23-3.19c11.52-2.41,22.68-5.57,30.21-15.3,5.72-7.72,15.01-26.58,9.45-52.11-2.29-10.93-6.09-15.43-10.18-18.44Z" fill="#fff"/><path d="M573.6,398.32l-65.39,13.71-.44,28.01,63.05-13.22-.38,26.37-63.05,13.22-.61,34.97,75.15-15.76-.18,27.34-109.31,22.92,2.54-144.39,99.16-20.79-.53,27.62Z" fill="#fff"/><path d="M721.7,483.62l-33.57,7.04-45.67-82.73-.98,92.51-31.62,6.63,2.73-144.43,33.97-7.12,46.14,83.04.12-92.74,31.43-6.59-2.54,144.39Z" fill="#fff"/><path d="M903.62,445.48l-32.01,6.71,2.25-111.73-29.19,117.38-28.89,6.06-26.58-107.31-.95,113.09-32.21,6.75,1.95-144.27,50.95-10.68,21.29,89.88,23.8-99.33,51.73-10.85-2.14,144.31Z" fill="#fff"/><path d="M1028.35,419.33l-7.49-26.96-50.75,10.64-9.5,30.52-36.11,7.57,55.24-155.44,38.65-8.1,43.53,134.73-33.58,7.04ZM998.48,311.89l-19.56,63.19,35.14-7.37-15.58-55.83Z" fill="#fff"/><path d="M1199.67,305.37c-1.48,4.59-3.79,9.15-6.88,12.85-3.79,4.26-8.03,7.39-17.99,13.35l33.91,49.95-37.48,7.86-28.51-45.58-24.01,5.03-.97,51.76-34.16,7.16,2.34-144.35,60.71-12.73c2.93-.61,5.66-1.19,8.63-1.61,3.99-.43,13.13-1.53,23.42,2.83,6.95,3.03,18.05,10.28,22.02,29.21.86,4.1,2.28,13.79-1.03,24.26ZM1161.77,280.1c-4.45-3.75-8.88-4.45-18.64-2.41l-23.23,4.87-.69,39.47,28.89-6.06c.78-.16,4.25-1.09,7.25-2.33,5.77-2.63,9.01-6.58,10.84-12.46,1.67-5.65,1-9.79.51-12.13-.33-1.56-1.23-5.85-4.93-8.95Z" fill="#fff"/><path d="M1303.4,275.26l57.17,74.41-36.11,7.57-40.92-55.2-21.32,29.53-.42,38.81-32.79,6.88,2.14-144.31,32.6-6.83-.82,59.26,48.25-69.21,40.99-8.59-48.78,67.69Z" fill="#fff"/></svg>